<svg width="23" height="23" viewBox="0 0 23 23" fill="none" xmlns="http://www.w3.org/2000/svg">
<path fill-rule="evenodd" clip-rule="evenodd" d="M11.5088 0.53447C5.46086 0.53447 0.556381 5.43895 0.556381 11.4869C0.556381 16.3256 3.69533 20.4306 8.04781 21.8785C8.59543 21.9792 8.79476 21.6397 8.79476 21.3506C8.79476 21.0899 8.786 20.4021 8.77943 19.4887C5.73248 20.1502 5.09067 18.021 5.09067 18.021C4.59343 16.7549 3.87495 16.4198 3.87495 16.4198C2.88048 15.7408 3.94943 15.7539 3.94943 15.7539C5.04905 15.8306 5.62733 16.882 5.62733 16.882C6.60429 18.5555 8.19019 18.0714 8.81448 17.791C8.91305 17.0835 9.19781 16.6016 9.50886 16.3278C7.07743 16.0518 4.51895 15.1121 4.51895 10.9151C4.51895 9.71914 4.9461 8.74218 5.64705 7.97552C5.53533 7.69952 5.15857 6.58457 5.75438 5.07752C5.75438 5.07752 6.67438 4.78399 8.76629 6.20123C9.64029 5.95809 10.5778 5.83761 11.5088 5.83323C12.4397 5.83761 13.375 5.95809 14.2512 6.20123C16.3431 4.78399 17.261 5.07752 17.261 5.07752C17.859 6.58457 17.4822 7.69952 17.3705 7.97552C18.0714 8.74218 18.4964 9.71914 18.4964 10.9151C18.4964 15.123 15.9357 16.0474 13.4955 16.319C13.8898 16.6564 14.2381 17.3267 14.2381 18.3474C14.2381 19.8107 14.225 20.9935 14.225 21.3528C14.225 21.6463 14.4221 21.9858 14.9785 21.8785C19.3266 20.4284 22.4611 16.3256 22.4611 11.4869C22.4611 5.43895 17.5567 0.53447 11.5088 0.53447Z" fill="#E9E9E9"/>
</svg>
