<?xml version="1.0" encoding="UTF-8" standalone="no"?>
<!DOCTYPE svg PUBLIC "-//W3C//DTD SVG 1.1//EN" "http://www.w3.org/Graphics/SVG/1.1/DTD/svg11.dtd">
<svg width="100%" height="100%" viewBox="0 0 32 32" version="1.1" xmlns="http://www.w3.org/2000/svg" xmlns:xlink="http://www.w3.org/1999/xlink" xml:space="preserve" xmlns:serif="http://www.serif.com/" style="fill-rule:evenodd;clip-rule:evenodd;stroke-linecap:round;stroke-linejoin:round;stroke-miterlimit:1.5;">
    <g transform="matrix(0.529446,0.724347,-0.724347,0.529446,21.0929,-5.9431)">
        <g transform="matrix(0.981226,0,0,0.961342,-2.83822,0.826703)">
            <path d="M10.451,25.454C10.127,25.013 9.836,24.546 9.58,24.058C8.797,22.558 8.353,20.853 8.353,19.045C8.353,13.059 13.213,8.2 19.199,8.2" style="fill:none;stroke:rgb(101,101,101);stroke-width:3.44px;"/>
        </g>
        <g transform="matrix(-0.142954,1.46318,-1.47456,-0.144066,28.3541,-21.9338)">
            <path d="M21.738,2.1L25.277,7.39C25.277,7.39 22.98,6.587 21.8,6.587C20.621,6.587 18.199,7.39 18.199,7.39L21.738,2.1Z" style="fill:rgb(101,101,101);stroke:rgb(101,101,101);stroke-width:0.83px;"/>
        </g>
    </g>
    <g transform="matrix(-0.532281,-0.722266,0.722266,-0.532281,10.9568,37.9648)">
        <g transform="matrix(0.981226,0,0,0.961342,-2.83822,0.826703)">
            <path d="M10.451,25.454C10.127,25.013 9.836,24.546 9.58,24.058C8.797,22.558 8.353,20.853 8.353,19.045C8.353,13.059 13.213,8.2 19.199,8.2" style="fill:none;stroke:rgb(101,101,101);stroke-width:3.44px;"/>
        </g>
        <g transform="matrix(-0.142954,1.46318,-1.47456,-0.144066,28.3541,-21.9338)">
            <path d="M21.738,2.1L25.277,7.39C25.277,7.39 22.98,6.587 21.8,6.587C20.621,6.587 18.199,7.39 18.199,7.39L21.738,2.1Z" style="fill:rgb(101,101,101);stroke:rgb(101,101,101);stroke-width:0.83px;"/>
        </g>
    </g>
</svg>
