<?xml version="1.0" encoding="UTF-8" standalone="no"?>
<svg xmlns="http://www.w3.org/2000/svg" xmlns:xlink="http://www.w3.org/1999/xlink" version="1.1" id="Layer_1" x="0px" y="0px" style="enable-background:new 0 0 2000 2000;" xml:space="preserve" viewBox="478.49 478.49 1043.02 1043.02">
<style type="text/css">
	.st0{display:none;}
	.st1{fill:url(#SVGID_1_);}
	.st2{fill:url(#SVGID_2_);}
	.st3{fill:url(#SVGID_3_);}
	.st4{fill:url(#SVGID_4_);}
	.st5{fill:url(#SVGID_5_);}
	.st6{fill:url(#SVGID_6_);}
	.st7{fill:url(#SVGID_7_);}
	.st8{fill:url(#SVGID_8_);}
	.st9{fill:url(#SVGID_9_);}
	.st10{fill:url(#SVGID_10_);}
</style>
<rect class="st0" width="2000" height="2000"/>
<g>
	<linearGradient id="SVGID_1_" gradientUnits="userSpaceOnUse" x1="465.7753" y1="1000" x2="1494.6382" y2="1000">
		<stop offset="0" style="stop-color:#FFD75F"/>
		<stop offset="0.5" style="stop-color:#FF67C3"/>
		<stop offset="0.9944" style="stop-color:#6BD6E3"/>
	</linearGradient>
	<path class="st1" d="M1520.86,974.41c-0.43-8.51-1.06-17.02-1.91-25.51c-0.85-8.49-1.9-16.95-3.16-25.4   c-1.26-8.44-2.73-16.84-4.4-25.2c-1.66-8.37-3.54-16.69-5.62-24.97c-2.08-8.27-4.36-16.49-6.85-24.66   c-2.48-8.16-5.16-16.25-8.04-24.29c-2.89-8.04-5.95-15.99-9.22-23.87c-3.27-7.88-6.73-15.67-10.39-23.38   c-3.64-7.72-7.49-15.34-11.51-22.86c-4.03-7.51-8.24-14.94-12.63-22.25c-4.38-7.32-8.95-14.52-13.69-21.62   c-4.74-7.1-9.65-14.07-14.74-20.91c-5.08-6.86-10.33-13.58-15.75-20.18c-5.41-6.59-10.98-13.05-16.72-19.36   c-5.73-6.33-11.61-12.51-17.64-18.54c-6.03-6.03-12.21-11.92-18.53-17.64c-6.33-5.73-12.78-11.31-19.38-16.72   c-6.6-5.41-13.32-10.66-20.17-15.74c-6.86-5.09-13.83-10-20.91-14.75c-7.1-4.74-14.31-9.3-21.62-13.69   c-7.32-4.39-14.74-8.6-22.26-12.62c-7.53-4.03-15.14-7.87-22.85-11.52c-7.71-3.64-15.51-7.11-23.39-10.38   c-7.88-3.27-15.83-6.35-23.87-9.22c-8.02-2.89-16.13-5.57-24.29-8.05c-8.16-2.48-16.38-4.76-24.66-6.85   c-8.27-2.07-16.59-3.95-24.96-5.62c-8.38-1.68-16.77-3.14-25.22-4.39c-8.43-1.27-16.9-2.32-25.39-3.16   c-8.5-0.85-17-1.48-25.52-1.91c-8.52-0.43-17.04-0.65-25.58-0.66c-8.53,0-17.07,0.2-25.59,0.62c-8.53,0.42-17.03,1.05-25.53,1.89   c-8.49,0.84-16.97,1.88-25.41,3.12c-8.44,1.26-16.84,2.72-25.22,4.38c-8.37,1.66-16.69,3.53-24.98,5.61   c-8.27,2.07-16.5,4.35-24.67,6.82c-8.16,2.48-16.26,5.15-24.3,8.02c-8.04,2.87-16,5.95-23.88,9.21   c-7.89,3.27-15.69,6.72-23.4,10.38c-7.72,3.64-15.34,7.48-22.86,11.51c-7.53,4.02-14.95,8.23-22.27,12.62   c-7.32,4.38-14.53,8.95-21.63,13.69c-7.1,4.74-14.07,9.65-20.93,14.74c-6.86,5.08-13.58,10.33-20.18,15.74   c-6.6,5.42-13.06,10.99-19.39,16.73c-6.32,5.73-12.49,11.61-18.54,17.64c-6.03,6.04-11.92,12.22-17.64,18.54   c-5.74,6.33-11.31,12.79-16.73,19.39c-5.41,6.6-10.66,13.32-15.74,20.18c-5.08,6.86-9.99,13.83-14.74,20.93   c-4.74,7.1-9.31,14.31-13.69,21.63c-4.39,7.32-8.6,14.75-12.62,22.27c-4.03,7.53-7.87,15.14-11.51,22.86   c-3.66,7.72-7.11,15.52-10.38,23.4c-3.26,7.88-6.34,15.84-9.21,23.88c-2.87,8.04-5.55,16.14-8.02,24.3   c-2.48,8.17-4.75,16.4-6.82,24.67c-2.08,8.28-3.95,16.6-5.61,24.98c-1.66,8.38-3.12,16.77-4.38,25.22   c-1.24,8.44-2.29,16.92-3.12,25.41c-0.84,8.5-1.47,17-1.89,25.53c-0.42,8.52-0.62,17.06-0.62,25.59c0,8.53,0.2,17.07,0.62,25.59   c0.42,8.52,1.05,17.03,1.89,25.52c0.84,8.5,1.88,16.97,3.12,25.41c1.26,8.44,2.72,16.85,4.38,25.22c1.66,8.38,3.53,16.7,5.61,24.98   c2.07,8.28,4.35,16.5,6.82,24.67c2.48,8.17,5.15,16.27,8.02,24.31c2.87,8.04,5.95,15.99,9.21,23.88   c3.27,7.89,6.72,15.69,10.38,23.39c3.64,7.72,7.48,15.35,11.51,22.87c4.02,7.53,8.23,14.95,12.62,22.27   c4.38,7.31,8.95,14.52,13.69,21.62c4.74,7.1,9.65,14.08,14.74,20.94c5.08,6.85,10.33,13.58,15.74,20.18   c5.42,6.6,10.99,13.05,16.73,19.38c5.73,6.33,11.61,12.51,17.64,18.54c6.04,6.03,12.22,11.92,18.54,17.66   c6.33,5.73,12.79,11.31,19.39,16.72c6.6,5.41,13.32,10.66,20.18,15.75c6.86,5.08,13.83,9.99,20.93,14.74s14.31,9.3,21.63,13.69   c7.32,4.39,14.75,8.59,22.27,12.62c7.53,4.02,15.14,7.85,22.86,11.51c7.72,3.64,15.52,7.1,23.4,10.37   c7.88,3.27,15.84,6.34,23.88,9.21c8.04,2.87,16.14,5.56,24.3,8.04c8.17,2.47,16.4,4.75,24.67,6.82c8.28,2.07,16.6,3.94,24.98,5.6   c8.38,1.66,16.77,3.12,25.22,4.38c8.44,1.26,16.92,2.3,25.41,3.13c8.5,0.84,17,1.46,25.53,1.88c8.52,0.42,17.06,0.63,25.59,0.63   s17.07-0.22,25.59-0.63c8.52-0.42,17.03-1.04,25.52-1.88c8.5-0.84,16.97-1.88,25.41-3.13c8.44-1.26,16.85-2.72,25.22-4.38   c8.37-1.66,16.7-3.53,24.98-5.6c8.28-2.07,16.5-4.36,24.67-6.82c8.17-2.48,16.27-5.16,24.31-8.04c8.04-2.87,15.99-5.94,23.88-9.21   c7.89-3.27,15.69-6.72,23.39-10.37c7.72-3.66,15.35-7.49,22.87-11.51c7.53-4.03,14.95-8.23,22.27-12.62   c7.31-4.39,14.52-8.95,21.62-13.69c7.1-4.74,14.08-9.65,20.94-14.74c6.85-5.09,13.58-10.34,20.18-15.75   c6.6-5.41,13.05-10.99,19.38-16.72c6.33-5.74,12.51-11.62,18.54-17.66c6.03-6.03,11.92-12.21,17.66-18.54   c5.73-6.33,11.31-12.78,16.72-19.38c5.41-6.6,10.66-13.33,15.75-20.18c5.08-6.86,9.99-13.84,14.74-20.94   c4.74-7.1,9.3-14.31,13.69-21.62c4.39-7.32,8.59-14.75,12.62-22.27c4.02-7.53,7.85-15.15,11.51-22.87   c3.64-7.71,7.1-15.51,10.37-23.39c3.27-7.89,6.34-15.84,9.21-23.88c2.87-8.04,5.56-16.14,8.04-24.31   c2.47-8.17,4.75-16.39,6.82-24.67c2.07-8.27,3.94-16.6,5.6-24.98c1.66-8.36,3.12-16.77,4.38-25.22c1.26-8.44,2.3-16.91,3.13-25.41   c0.84-8.49,1.46-17,1.88-25.52c0.42-8.52,0.63-17.06,0.63-25.59C1521.5,991.47,1521.28,982.93,1520.86,974.41z M1459.61,1022.58   c-0.37,7.51-0.93,15.03-1.66,22.52c-0.74,7.49-1.66,14.96-2.77,22.42c-1.1,7.45-2.39,14.86-3.86,22.25   c-1.47,7.38-3.11,14.74-4.95,22.04c-1.83,7.3-3.84,14.57-6.02,21.76c-2.18,7.21-4.55,14.36-7.08,21.45   c-2.54,7.1-5.25,14.11-8.13,21.07c-2.89,6.96-5.94,13.84-9.16,20.65c-3.23,6.8-6.61,13.52-10.15,20.17   c-3.55,6.64-7.27,13.2-11.14,19.66c-3.87,6.45-7.9,12.81-12.09,19.08c-4.18,6.26-8.51,12.42-13,18.46   c-4.48,6.05-9.11,11.99-13.9,17.8c-4.78,5.83-9.69,11.52-14.75,17.11c-5.06,5.58-10.25,11.02-15.57,16.35   c-5.33,5.32-10.77,10.51-16.35,15.57c-5.59,5.06-11.28,9.97-17.11,14.75c-5.82,4.79-11.75,9.42-17.8,13.9   c-6.04,4.49-12.2,8.83-18.46,13c-6.27,4.19-12.63,8.22-19.08,12.09c-6.46,3.87-13.02,7.58-19.66,11.14   c-6.64,3.54-13.37,6.93-20.17,10.15c-6.81,3.21-13.69,6.27-20.65,9.16c-6.96,2.87-13.98,5.59-21.07,8.13   c-7.08,2.54-14.24,4.9-21.45,7.08c-7.2,2.18-14.46,4.19-21.76,6.02c-7.3,1.83-14.66,3.47-22.04,4.95   c-7.39,1.47-14.8,2.76-22.25,3.86c-7.46,1.11-14.93,2.04-22.42,2.77c-7.49,0.74-15.01,1.29-22.52,1.66   c-7.53,0.36-15.05,0.55-22.58,0.55c-7.54,0-15.06-0.19-22.58-0.55c-7.53-0.37-15.03-0.93-22.53-1.66   c-7.49-0.74-14.96-1.66-22.41-2.77c-7.45-1.1-14.87-2.39-22.25-3.86c-7.39-1.47-14.74-3.11-22.05-4.95   c-7.3-1.83-14.55-3.84-21.76-6.02c-7.21-2.18-14.35-4.55-21.45-7.08c-7.08-2.54-14.11-5.25-21.07-8.13   c-6.95-2.89-13.84-5.94-20.64-9.16c-6.81-3.23-13.54-6.61-20.18-10.15c-6.64-3.55-13.18-7.27-19.65-11.14   c-6.46-3.87-12.82-7.9-19.08-12.09c-6.26-4.18-12.42-8.51-18.47-13c-6.04-4.48-11.99-9.11-17.8-13.9   c-5.82-4.78-11.52-9.69-17.1-14.75c-5.58-5.06-11.03-10.25-16.35-15.57c-5.33-5.33-10.53-10.77-15.57-16.35   c-5.06-5.59-9.98-11.28-14.76-17.11c-4.78-5.82-9.4-11.75-13.9-17.8c-4.48-6.04-8.82-12.2-13-18.46   c-4.19-6.27-8.21-12.63-12.08-19.08c-3.88-6.46-7.58-13.02-11.14-19.66c-3.55-6.64-6.94-13.37-10.15-20.17   c-3.23-6.81-6.27-13.69-9.16-20.65s-5.59-13.98-8.13-21.07c-2.55-7.08-4.9-14.24-7.08-21.45c-2.18-7.2-4.2-14.46-6.03-21.76   c-1.82-7.3-3.47-14.66-4.95-22.04c-1.47-7.39-2.75-14.8-3.86-22.25c-1.11-7.46-2.03-14.93-2.76-22.42   c-0.75-7.49-1.29-15.01-1.66-22.52c-0.37-7.53-0.55-15.05-0.55-22.58c0-7.54,0.18-15.06,0.55-22.58   c0.37-7.53,0.92-15.03,1.66-22.53c0.74-7.49,1.65-14.96,2.76-22.41c1.11-7.45,2.39-14.87,3.86-22.25   c1.47-7.39,3.12-14.74,4.95-22.05c1.83-7.3,3.85-14.55,6.03-21.76c2.18-7.21,4.54-14.35,7.08-21.45   c2.54-7.08,5.24-14.11,8.13-21.07c2.89-6.95,5.93-13.84,9.16-20.64c3.21-6.81,6.6-13.54,10.15-20.18   c3.55-6.64,7.25-13.19,11.14-19.65c3.87-6.46,7.89-12.82,12.08-19.08c4.19-6.26,8.52-12.42,13-18.47   c4.49-6.04,9.12-11.99,13.9-17.8c4.78-5.82,9.7-11.52,14.76-17.1c5.05-5.58,10.24-11.03,15.57-16.35   c5.32-5.33,10.77-10.53,16.35-15.57c5.58-5.06,11.28-9.98,17.1-14.76c5.82-4.78,11.76-9.4,17.8-13.9c6.05-4.48,12.21-8.82,18.47-13   c6.26-4.19,12.62-8.21,19.08-12.08c6.46-3.88,13-7.58,19.65-11.14c6.64-3.55,13.37-6.94,20.18-10.15   c6.8-3.23,13.69-6.27,20.64-9.16c6.96-2.89,13.99-5.59,21.07-8.13c7.1-2.55,14.24-4.9,21.45-7.08c7.21-2.18,14.46-4.2,21.76-6.03   c7.31-1.82,14.66-3.47,22.05-4.95c7.38-1.47,14.8-2.75,22.25-3.86c7.45-1.11,14.92-2.03,22.41-2.76c7.5-0.75,15.01-1.29,22.53-1.66   c7.51-0.37,15.04-0.55,22.58-0.55c7.53,0,15.05,0.18,22.58,0.55c7.51,0.37,15.03,0.92,22.52,1.66c7.49,0.74,14.96,1.65,22.42,2.76   c7.45,1.11,14.86,2.39,22.25,3.86c7.38,1.47,14.74,3.12,22.04,4.95c7.3,1.83,14.57,3.85,21.76,6.03   c7.21,2.18,14.36,4.54,21.45,7.08c7.1,2.54,14.11,5.24,21.07,8.13s13.84,5.93,20.65,9.16c6.8,3.21,13.52,6.6,20.17,10.15   s13.2,7.25,19.66,11.14c6.45,3.87,12.81,7.89,19.08,12.08c6.26,4.19,12.42,8.52,18.46,13c6.05,4.49,11.99,9.12,17.8,13.9   c5.83,4.78,11.52,9.7,17.11,14.76c5.58,5.05,11.02,10.24,16.35,15.57c5.32,5.32,10.51,10.77,15.57,16.35s9.97,11.28,14.75,17.1   c4.79,5.82,9.42,11.76,13.9,17.8c4.49,6.05,8.83,12.21,13,18.47c4.19,6.26,8.22,12.62,12.09,19.08c3.87,6.46,7.58,13,11.14,19.65   c3.54,6.64,6.93,13.37,10.15,20.18c3.21,6.8,6.27,13.69,9.16,20.64c2.87,6.96,5.59,13.99,8.13,21.07c2.54,7.1,4.9,14.24,7.08,21.45   c2.18,7.21,4.19,14.46,6.02,21.76c1.83,7.31,3.47,14.66,4.95,22.05c1.47,7.38,2.76,14.8,3.86,22.25   c1.11,7.45,2.04,14.92,2.77,22.41c0.74,7.5,1.29,15.01,1.66,22.53c0.36,7.51,0.55,15.04,0.55,22.58   C1460.16,1007.53,1459.97,1015.05,1459.61,1022.58z"/>
	<linearGradient id="SVGID_2_" gradientUnits="userSpaceOnUse" x1="465.7753" y1="999.9943" x2="1494.6382" y2="999.9943">
		<stop offset="0" style="stop-color:#FFD75F"/>
		<stop offset="0.5" style="stop-color:#FF67C3"/>
		<stop offset="0.9944" style="stop-color:#6BD6E3"/>
	</linearGradient>
	<path class="st2" d="M757.64,1242.34l339.29-145.41l145.41-339.29L903.05,903.05L757.64,1242.34z M1125.77,874.22l-75.47,176.09h0   L949.68,949.68L1125.77,874.22z"/>
</g>
</svg>