<svg xmlns="http://www.w3.org/2000/svg" viewBox="18.282 32 987.4 975.1"  id="icon-reoako_icon" ><path d="M18.282 114.286C18.282 68.841 55.122 32 100.568 32h822.857c45.445 0 82.285 36.84 82.285 82.286v699.428c0 45.445-36.84 82.286-82.285 82.286h-300.58l-86.662 100.068c-12.761 14.732-35.619 14.732-48.379 0L401.142 896H100.568c-45.445 0-82.286-36.841-82.286-82.286V672h425.311V524h-.003v-94h.003V301.438h65.813c56.346 0 83.618 24.281 83.618 68.906 0 44.406-27.272 66.718-83.168 66.718H444.59v76.126h70.225L602.265 672H710l-98.043-174.125c52.515-21.875 81.59-66.281 81.59-127.531 0-89.032-60.629-146.344-165.434-146.344H346v447H18.282V114.286Z"/></svg>
