<svg width="793" height="166" viewBox="0 0 793 166" fill="none" xmlns="http://www.w3.org/2000/svg">
<path d="M207 112.7C207 80.8 225 61 253 61C281 61 298 79 298 111.9C298 144.8 298 114.6 298 115.8C298 117.3 296.7 118.5 295.1 118.5H238.8L225.4 118.3C226.4 137.3 237.2 148 254 148C270.8 148 275.7 142.6 279.4 131.9C279.9 130.6 281.2 129.7 282.6 129.9L293.6 131.1C295.5 131.3 296.7 133.2 296.2 135C290.2 153.9 274.6 164.1 254.2 164.1C233.8 164.1 207.2 145.9 207.2 112.8L207 112.7ZM239.2 103.8H266.4L280 104.2C278.6 85.4 267.4 76.9 253 76.9C238.6 76.9 227.1 85.4 225.8 104.2L239.2 103.8Z" fill="white"/>
<path d="M326.3 131.1V78.8L315.4 79.4H308.9C307.2 79.4 305.9 78 305.9 76.4V66C305.9 64.3 307.3 63 308.9 63H315.4L326.7 63.6L326.3 53.5V37.1C326.3 35.4 327.7 34.1 329.3 34.1H342.1C343.8 34.1 345.1 35.5 345.1 37.1V53.5L344.5 63.6L355.2 63H367C368.7 63 370 64.4 370 66V76.4C370 78.1 368.6 79.4 367 79.4H355.2L345.1 78.8V130.1C345.1 142.8 351.2 146.5 359.3 146.5C367.4 146.5 363.6 146.4 366.6 146.1C368.4 145.9 369.9 147.3 369.9 149.1V159.2C369.9 160.7 368.8 162 367.3 162.2C363.1 162.8 360.1 163 356.3 163C335.6 163 326.3 151.7 326.3 131.1Z" fill="white"/>
<path d="M381 112.7C381 82.6 398.4 61 427.4 61C456.4 61 466.5 73.8 470.3 96.2C470.6 97.9 469.4 99.6 467.6 99.7L455.6 100.8C454.1 100.9 452.7 99.9 452.4 98.4C449.5 83.9 439.9 76.9 427.2 76.9C414.5 76.9 399.4 90.8 399.4 112.8C399.4 134.8 410.2 148.1 427.6 148.1C445 148.1 450.2 141.4 453.2 126.6C453.5 125.1 454.9 124.1 456.4 124.2L468.3 125.3C470 125.5 471.3 127.1 471 128.8C467.5 151.2 451 164.2 427.6 164.2C404.2 164.2 381 142.8 381 112.9V112.7Z" fill="white"/>
<path d="M487 159V15C487 13.3 488.3 12 490 12H502.9C504.6 12 505.9 13.4 505.9 15V69.8L504.5 81.8H507.3C515.3 68.8 527 62.1 541.7 62.1C556.4 62.1 575.1 75.3 575.1 101.6V159C575.1 160.7 573.8 162 572.1 162H559.2C557.5 162 556.2 160.6 556.2 159V105.3C556.2 85.2 547 78.6 534.2 78.6C521.4 78.6 505.9 90 505.9 113.5V158.9C505.9 160.6 504.6 161.9 502.9 161.9H490C488.3 161.9 487 160.6 487 158.9V159Z" fill="white"/>
<path d="M590 112.7C590 80.8 608 61 636 61C664 61 681 79 681 111.9C681 144.8 681 116.7 680.8 118.4H621.8L608.4 118.2C609.4 137.2 620.2 147.9 637 147.9C653.8 147.9 658.7 142.5 662.4 131.8C662.9 130.5 664.2 129.6 665.6 129.8L676.6 131C678.5 131.2 679.7 133.1 679.2 134.9C673.2 153.8 657.6 164 637.2 164C616.8 164 590.2 145.8 590.2 112.7H590ZM622.2 103.8H649.4L663 104.2C661.6 85.4 650.4 76.9 636 76.9C621.6 76.9 610.1 85.4 608.8 104.2L622.2 103.8Z" fill="white"/>
<path d="M694 112.7C694 81 712.4 62 735.6 62C758.8 62 761.9 71.5 766.7 81.1H769.5L768.3 69.3V15C768.3 13.3 769.7 12 771.3 12H784.1C785.8 12 787.1 13.3 787.1 15V158.8C787.1 160.5 785.7 161.8 784.1 161.8H771.3C769.6 161.8 768.3 160.5 768.3 158.8V155.5L769.5 144.3H766.7C762.2 154.2 751.9 163 735.6 163C712.4 163 694 144.9 694 112.7ZM768 112.7C768 91.6 757.1 78.2 740.7 78.2C724.3 78.2 713.6 90.8 713.6 112.7C713.6 134.6 725.1 146.8 740.7 146.8C756.3 146.8 768 133.6 768 112.7Z" fill="white"/>
<path fill-rule="evenodd" clip-rule="evenodd" d="M21 11C17.7 11 15 13.7 15 17V159C15 162.3 17.7 165 21 165H163C166.3 165 169 162.3 169 159V17C169 13.7 166.3 11 163 11H21ZM43.1 141H142.1C143.7 141 144.6 139.2 143.5 138.1L130.9 125.1C128.7 122.5 125.3 121 121.8 121H43.1C42 121 41 121.9 41 123V139C41 140.1 41.9 141 43.1 141Z" fill="white"/>
</svg>
