<?xml version="1.0" encoding="utf-8" ?>
<svg xmlns="http://www.w3.org/2000/svg" xmlns:xlink="http://www.w3.org/1999/xlink" width="465" height="330">
	<path fill="white" d="M15 80L465 80L465 330L15 330L15 80Z"/>
	<path fill="white" d="M36 240L134 240Q134.123 240 134.245 240.006Q134.368 240.012 134.49 240.024Q134.612 240.036 134.734 240.054Q134.855 240.072 134.975 240.096Q135.096 240.12 135.215 240.15Q135.334 240.18 135.451 240.215Q135.569 240.251 135.684 240.292Q135.8 240.334 135.913 240.381Q136.027 240.428 136.138 240.48Q136.249 240.533 136.357 240.59Q136.465 240.648 136.57 240.711Q136.676 240.774 136.778 240.843Q136.88 240.911 136.978 240.984Q137.077 241.057 137.172 241.135Q137.267 241.213 137.358 241.295Q137.449 241.378 137.536 241.464Q137.622 241.551 137.705 241.642Q137.787 241.733 137.865 241.828Q137.943 241.923 138.016 242.021Q138.089 242.12 138.157 242.222Q138.226 242.324 138.289 242.429Q138.352 242.535 138.41 242.643Q138.467 242.751 138.52 242.862Q138.572 242.973 138.619 243.087Q138.666 243.2 138.708 243.316Q138.749 243.431 138.785 243.549Q138.82 243.666 138.85 243.785Q138.88 243.904 138.904 244.025Q138.928 244.145 138.946 244.266Q138.964 244.388 138.976 244.51Q138.988 244.632 138.994 244.755Q139 244.877 139 245L139 295Q139 295.123 138.994 295.245Q138.988 295.368 138.976 295.49Q138.964 295.612 138.946 295.734Q138.928 295.855 138.904 295.975Q138.88 296.096 138.85 296.215Q138.82 296.334 138.785 296.451Q138.749 296.569 138.708 296.684Q138.666 296.8 138.619 296.913Q138.572 297.027 138.52 297.138Q138.467 297.249 138.41 297.357Q138.352 297.465 138.289 297.57Q138.226 297.676 138.157 297.778Q138.089 297.88 138.016 297.978Q137.943 298.077 137.865 298.172Q137.787 298.267 137.705 298.358Q137.622 298.449 137.536 298.535Q137.449 298.622 137.358 298.705Q137.267 298.787 137.172 298.865Q137.077 298.943 136.978 299.016Q136.88 299.089 136.778 299.157Q136.676 299.225 136.57 299.289Q136.465 299.352 136.357 299.41Q136.249 299.467 136.138 299.52Q136.027 299.572 135.913 299.619Q135.8 299.666 135.684 299.708Q135.569 299.749 135.451 299.785Q135.334 299.82 135.215 299.85Q135.096 299.88 134.975 299.904Q134.855 299.928 134.734 299.946Q134.612 299.964 134.49 299.976Q134.368 299.988 134.245 299.994Q134.123 300 134 300L36 300Q35.8773 300 35.7547 299.994Q35.6321 299.988 35.5099 299.976Q35.3878 299.964 35.2663 299.946Q35.1449 299.928 35.0245 299.904Q34.9042 299.88 34.7851 299.85Q34.666 299.82 34.5486 299.785Q34.4311 299.749 34.3155 299.708Q34.2 299.666 34.0866 299.619Q33.9732 299.572 33.8622 299.52Q33.7513 299.467 33.643 299.41Q33.5348 299.352 33.4295 299.289Q33.3242 299.225 33.2221 299.157Q33.1201 299.089 33.0215 299.016Q32.9229 298.943 32.828 298.865Q32.7332 298.787 32.6422 298.705Q32.5513 298.622 32.4645 298.535Q32.3777 298.449 32.2952 298.358Q32.2128 298.267 32.1349 298.172Q32.0571 298.077 31.984 297.978Q31.9108 297.88 31.8426 297.778Q31.7745 297.676 31.7114 297.57Q31.6483 297.465 31.5904 297.357Q31.5325 297.249 31.4801 297.138Q31.4276 297.027 31.3806 296.913Q31.3336 296.8 31.2923 296.684Q31.2509 296.569 31.2153 296.451Q31.1797 296.334 31.1498 296.215Q31.12 296.096 31.0961 295.975Q31.0721 295.855 31.0541 295.734Q31.0361 295.612 31.0241 295.49Q31.012 295.368 31.006 295.245Q31 295.123 31 295L31 245Q31 244.877 31.006 244.755Q31.012 244.632 31.0241 244.51Q31.0361 244.388 31.0541 244.266Q31.0721 244.145 31.0961 244.025Q31.12 243.904 31.1498 243.785Q31.1797 243.666 31.2153 243.549Q31.2509 243.431 31.2923 243.316Q31.3336 243.2 31.3806 243.087Q31.4276 242.973 31.4801 242.862Q31.5325 242.751 31.5904 242.643Q31.6483 242.535 31.7114 242.43Q31.7745 242.324 31.8427 242.222Q31.9108 242.12 31.984 242.021Q32.0571 241.923 32.1349 241.828Q32.2128 241.733 32.2952 241.642Q32.3777 241.551 32.4645 241.464Q32.5513 241.378 32.6422 241.295Q32.7332 241.213 32.828 241.135Q32.9229 241.057 33.0215 240.984Q33.1201 240.911 33.2221 240.843Q33.3242 240.774 33.4295 240.711Q33.5348 240.648 33.643 240.59Q33.7513 240.533 33.8622 240.48Q33.9732 240.428 34.0866 240.381Q34.2 240.334 34.3156 240.292Q34.4311 240.251 34.5486 240.215Q34.666 240.18 34.7851 240.15Q34.9042 240.12 35.0246 240.096Q35.1449 240.072 35.2663 240.054Q35.3878 240.036 35.5099 240.024Q35.6321 240.012 35.7547 240.006Q35.8773 240 36 240Z"/>
	<path fill="none" stroke="black" stroke-width="1.25" stroke-miterlimit="4" d="M36 240L134 240Q134.123 240 134.245 240.006Q134.368 240.012 134.49 240.024Q134.612 240.036 134.734 240.054Q134.855 240.072 134.975 240.096Q135.096 240.12 135.215 240.15Q135.334 240.18 135.451 240.215Q135.569 240.251 135.684 240.292Q135.8 240.334 135.913 240.381Q136.027 240.428 136.138 240.48Q136.249 240.533 136.357 240.59Q136.465 240.648 136.57 240.711Q136.676 240.774 136.778 240.843Q136.88 240.911 136.978 240.984Q137.077 241.057 137.172 241.135Q137.267 241.213 137.358 241.295Q137.449 241.378 137.536 241.464Q137.622 241.551 137.705 241.642Q137.787 241.733 137.865 241.828Q137.943 241.923 138.016 242.021Q138.089 242.12 138.157 242.222Q138.226 242.324 138.289 242.429Q138.352 242.535 138.41 242.643Q138.467 242.751 138.52 242.862Q138.572 242.973 138.619 243.087Q138.666 243.2 138.708 243.316Q138.749 243.431 138.785 243.549Q138.82 243.666 138.85 243.785Q138.88 243.904 138.904 244.025Q138.928 244.145 138.946 244.266Q138.964 244.388 138.976 244.51Q138.988 244.632 138.994 244.755Q139 244.877 139 245L139 295Q139 295.123 138.994 295.245Q138.988 295.368 138.976 295.49Q138.964 295.612 138.946 295.734Q138.928 295.855 138.904 295.975Q138.88 296.096 138.85 296.215Q138.82 296.334 138.785 296.451Q138.749 296.569 138.708 296.684Q138.666 296.8 138.619 296.913Q138.572 297.027 138.52 297.138Q138.467 297.249 138.41 297.357Q138.352 297.465 138.289 297.57Q138.226 297.676 138.157 297.778Q138.089 297.88 138.016 297.978Q137.943 298.077 137.865 298.172Q137.787 298.267 137.705 298.358Q137.622 298.449 137.536 298.535Q137.449 298.622 137.358 298.705Q137.267 298.787 137.172 298.865Q137.077 298.943 136.978 299.016Q136.88 299.089 136.778 299.157Q136.676 299.225 136.57 299.289Q136.465 299.352 136.357 299.41Q136.249 299.467 136.138 299.52Q136.027 299.572 135.913 299.619Q135.8 299.666 135.684 299.708Q135.569 299.749 135.451 299.785Q135.334 299.82 135.215 299.85Q135.096 299.88 134.975 299.904Q134.855 299.928 134.734 299.946Q134.612 299.964 134.49 299.976Q134.368 299.988 134.245 299.994Q134.123 300 134 300L36 300Q35.8773 300 35.7547 299.994Q35.6321 299.988 35.5099 299.976Q35.3878 299.964 35.2663 299.946Q35.1449 299.928 35.0245 299.904Q34.9042 299.88 34.7851 299.85Q34.666 299.82 34.5486 299.785Q34.4311 299.749 34.3155 299.708Q34.2 299.666 34.0866 299.619Q33.9732 299.572 33.8622 299.52Q33.7513 299.467 33.643 299.41Q33.5348 299.352 33.4295 299.289Q33.3242 299.225 33.2221 299.157Q33.1201 299.089 33.0215 299.016Q32.9229 298.943 32.828 298.865Q32.7332 298.787 32.6422 298.705Q32.5513 298.622 32.4645 298.535Q32.3777 298.449 32.2952 298.358Q32.2128 298.267 32.1349 298.172Q32.0571 298.077 31.984 297.978Q31.9108 297.88 31.8426 297.778Q31.7745 297.676 31.7114 297.57Q31.6483 297.465 31.5904 297.357Q31.5325 297.249 31.4801 297.138Q31.4276 297.027 31.3806 296.913Q31.3336 296.8 31.2923 296.684Q31.2509 296.569 31.2153 296.451Q31.1797 296.334 31.1498 296.215Q31.12 296.096 31.0961 295.975Q31.0721 295.855 31.0541 295.734Q31.0361 295.612 31.0241 295.49Q31.012 295.368 31.006 295.245Q31 295.123 31 295L31 245Q31 244.877 31.006 244.755Q31.012 244.632 31.0241 244.51Q31.0361 244.388 31.0541 244.266Q31.0721 244.145 31.0961 244.025Q31.12 243.904 31.1498 243.785Q31.1797 243.666 31.2153 243.549Q31.2509 243.431 31.2923 243.316Q31.3336 243.2 31.3806 243.087Q31.4276 242.973 31.4801 242.862Q31.5325 242.751 31.5904 242.643Q31.6483 242.535 31.7114 242.43Q31.7745 242.324 31.8427 242.222Q31.9108 242.12 31.984 242.021Q32.0571 241.923 32.1349 241.828Q32.2128 241.733 32.2952 241.642Q32.3777 241.551 32.4645 241.464Q32.5513 241.378 32.6422 241.295Q32.7332 241.213 32.828 241.135Q32.9229 241.057 33.0215 240.984Q33.1201 240.911 33.2221 240.843Q33.3242 240.774 33.4295 240.711Q33.5348 240.648 33.643 240.59Q33.7513 240.533 33.8622 240.48Q33.9732 240.428 34.0866 240.381Q34.2 240.334 34.3156 240.292Q34.4311 240.251 34.5486 240.215Q34.666 240.18 34.7851 240.15Q34.9042 240.12 35.0246 240.096Q35.1449 240.072 35.2663 240.054Q35.3878 240.036 35.5099 240.024Q35.6321 240.012 35.7547 240.006Q35.8773 240 36 240Z"/>
	<text font-size="14" font-family="Nimbus Sans" x="80.5, " y="273.5, ">
			A
	</text>
	<ellipse fill="white" cx="58" cy="240" rx="10" ry="10"/>
	<ellipse fill="none" stroke="black" stroke-width="1.25" stroke-miterlimit="4" cx="58" cy="240" rx="10" ry="10"/>
	<path fill="white" d="M341 240L439 240Q439.123 240 439.245 240.006Q439.368 240.012 439.49 240.024Q439.612 240.036 439.734 240.054Q439.855 240.072 439.975 240.096Q440.096 240.12 440.215 240.15Q440.334 240.18 440.451 240.215Q440.569 240.251 440.684 240.292Q440.8 240.334 440.913 240.381Q441.027 240.428 441.138 240.48Q441.249 240.533 441.357 240.59Q441.465 240.648 441.57 240.711Q441.676 240.774 441.778 240.843Q441.88 240.911 441.979 240.984Q442.077 241.057 442.172 241.135Q442.267 241.213 442.358 241.295Q442.449 241.378 442.536 241.464Q442.622 241.551 442.705 241.642Q442.787 241.733 442.865 241.828Q442.943 241.923 443.016 242.021Q443.089 242.12 443.157 242.222Q443.226 242.324 443.289 242.429Q443.352 242.535 443.41 242.643Q443.467 242.751 443.52 242.862Q443.572 242.973 443.619 243.087Q443.666 243.2 443.708 243.316Q443.749 243.431 443.785 243.549Q443.82 243.666 443.85 243.785Q443.88 243.904 443.904 244.025Q443.928 244.145 443.946 244.266Q443.964 244.388 443.976 244.51Q443.988 244.632 443.994 244.755Q444 244.877 444 245L444 295Q444 295.123 443.994 295.245Q443.988 295.368 443.976 295.49Q443.964 295.612 443.946 295.734Q443.928 295.855 443.904 295.975Q443.88 296.096 443.85 296.215Q443.82 296.334 443.785 296.451Q443.749 296.569 443.708 296.684Q443.666 296.8 443.619 296.913Q443.572 297.027 443.52 297.138Q443.467 297.249 443.41 297.357Q443.352 297.465 443.289 297.57Q443.226 297.676 443.157 297.778Q443.089 297.88 443.016 297.978Q442.943 298.077 442.865 298.172Q442.787 298.267 442.705 298.358Q442.622 298.449 442.536 298.535Q442.449 298.622 442.358 298.705Q442.267 298.787 442.172 298.865Q442.077 298.943 441.978 299.016Q441.88 299.089 441.778 299.157Q441.676 299.225 441.57 299.289Q441.465 299.352 441.357 299.41Q441.249 299.467 441.138 299.52Q441.027 299.572 440.913 299.619Q440.8 299.666 440.684 299.708Q440.569 299.749 440.451 299.785Q440.334 299.82 440.215 299.85Q440.096 299.88 439.975 299.904Q439.855 299.928 439.734 299.946Q439.612 299.964 439.49 299.976Q439.368 299.988 439.245 299.994Q439.123 300 439 300L341 300Q340.877 300 340.755 299.994Q340.632 299.988 340.51 299.976Q340.388 299.964 340.266 299.946Q340.145 299.928 340.025 299.904Q339.904 299.88 339.785 299.85Q339.666 299.82 339.549 299.785Q339.431 299.749 339.316 299.708Q339.2 299.666 339.087 299.619Q338.973 299.572 338.862 299.52Q338.751 299.467 338.643 299.41Q338.535 299.352 338.429 299.289Q338.324 299.225 338.222 299.157Q338.12 299.089 338.022 299.016Q337.923 298.943 337.828 298.865Q337.733 298.787 337.642 298.705Q337.551 298.622 337.464 298.535Q337.378 298.449 337.295 298.358Q337.213 298.267 337.135 298.172Q337.057 298.077 336.984 297.978Q336.911 297.88 336.843 297.778Q336.774 297.676 336.711 297.57Q336.648 297.465 336.59 297.357Q336.533 297.249 336.48 297.138Q336.428 297.027 336.381 296.913Q336.334 296.8 336.292 296.684Q336.251 296.569 336.215 296.451Q336.18 296.334 336.15 296.215Q336.12 296.096 336.096 295.975Q336.072 295.855 336.054 295.734Q336.036 295.612 336.024 295.49Q336.012 295.368 336.006 295.245Q336 295.123 336 295L336 245Q336 244.877 336.006 244.755Q336.012 244.632 336.024 244.51Q336.036 244.388 336.054 244.266Q336.072 244.145 336.096 244.025Q336.12 243.904 336.15 243.785Q336.18 243.666 336.215 243.549Q336.251 243.431 336.292 243.316Q336.334 243.2 336.381 243.087Q336.428 242.973 336.48 242.862Q336.533 242.751 336.59 242.643Q336.648 242.535 336.711 242.43Q336.774 242.324 336.843 242.222Q336.911 242.12 336.984 242.021Q337.057 241.923 337.135 241.828Q337.213 241.733 337.295 241.642Q337.378 241.551 337.464 241.464Q337.551 241.378 337.642 241.295Q337.733 241.213 337.828 241.135Q337.923 241.057 338.022 240.984Q338.12 240.911 338.222 240.843Q338.324 240.774 338.43 240.711Q338.535 240.648 338.643 240.59Q338.751 240.533 338.862 240.48Q338.973 240.428 339.087 240.381Q339.2 240.334 339.316 240.292Q339.431 240.251 339.549 240.215Q339.666 240.18 339.785 240.15Q339.904 240.12 340.025 240.096Q340.145 240.072 340.266 240.054Q340.388 240.036 340.51 240.024Q340.632 240.012 340.755 240.006Q340.877 240 341 240Z"/>
	<path fill="none" stroke="black" stroke-width="1.25" stroke-miterlimit="4" d="M341 240L439 240Q439.123 240 439.245 240.006Q439.368 240.012 439.49 240.024Q439.612 240.036 439.734 240.054Q439.855 240.072 439.975 240.096Q440.096 240.12 440.215 240.15Q440.334 240.18 440.451 240.215Q440.569 240.251 440.684 240.292Q440.8 240.334 440.913 240.381Q441.027 240.428 441.138 240.48Q441.249 240.533 441.357 240.59Q441.465 240.648 441.57 240.711Q441.676 240.774 441.778 240.843Q441.88 240.911 441.979 240.984Q442.077 241.057 442.172 241.135Q442.267 241.213 442.358 241.295Q442.449 241.378 442.536 241.464Q442.622 241.551 442.705 241.642Q442.787 241.733 442.865 241.828Q442.943 241.923 443.016 242.021Q443.089 242.12 443.157 242.222Q443.226 242.324 443.289 242.429Q443.352 242.535 443.41 242.643Q443.467 242.751 443.52 242.862Q443.572 242.973 443.619 243.087Q443.666 243.2 443.708 243.316Q443.749 243.431 443.785 243.549Q443.82 243.666 443.85 243.785Q443.88 243.904 443.904 244.025Q443.928 244.145 443.946 244.266Q443.964 244.388 443.976 244.51Q443.988 244.632 443.994 244.755Q444 244.877 444 245L444 295Q444 295.123 443.994 295.245Q443.988 295.368 443.976 295.49Q443.964 295.612 443.946 295.734Q443.928 295.855 443.904 295.975Q443.88 296.096 443.85 296.215Q443.82 296.334 443.785 296.451Q443.749 296.569 443.708 296.684Q443.666 296.8 443.619 296.913Q443.572 297.027 443.52 297.138Q443.467 297.249 443.41 297.357Q443.352 297.465 443.289 297.57Q443.226 297.676 443.157 297.778Q443.089 297.88 443.016 297.978Q442.943 298.077 442.865 298.172Q442.787 298.267 442.705 298.358Q442.622 298.449 442.536 298.535Q442.449 298.622 442.358 298.705Q442.267 298.787 442.172 298.865Q442.077 298.943 441.978 299.016Q441.88 299.089 441.778 299.157Q441.676 299.225 441.57 299.289Q441.465 299.352 441.357 299.41Q441.249 299.467 441.138 299.52Q441.027 299.572 440.913 299.619Q440.8 299.666 440.684 299.708Q440.569 299.749 440.451 299.785Q440.334 299.82 440.215 299.85Q440.096 299.88 439.975 299.904Q439.855 299.928 439.734 299.946Q439.612 299.964 439.49 299.976Q439.368 299.988 439.245 299.994Q439.123 300 439 300L341 300Q340.877 300 340.755 299.994Q340.632 299.988 340.51 299.976Q340.388 299.964 340.266 299.946Q340.145 299.928 340.025 299.904Q339.904 299.88 339.785 299.85Q339.666 299.82 339.549 299.785Q339.431 299.749 339.316 299.708Q339.2 299.666 339.087 299.619Q338.973 299.572 338.862 299.52Q338.751 299.467 338.643 299.41Q338.535 299.352 338.429 299.289Q338.324 299.225 338.222 299.157Q338.12 299.089 338.022 299.016Q337.923 298.943 337.828 298.865Q337.733 298.787 337.642 298.705Q337.551 298.622 337.464 298.535Q337.378 298.449 337.295 298.358Q337.213 298.267 337.135 298.172Q337.057 298.077 336.984 297.978Q336.911 297.88 336.843 297.778Q336.774 297.676 336.711 297.57Q336.648 297.465 336.59 297.357Q336.533 297.249 336.48 297.138Q336.428 297.027 336.381 296.913Q336.334 296.8 336.292 296.684Q336.251 296.569 336.215 296.451Q336.18 296.334 336.15 296.215Q336.12 296.096 336.096 295.975Q336.072 295.855 336.054 295.734Q336.036 295.612 336.024 295.49Q336.012 295.368 336.006 295.245Q336 295.123 336 295L336 245Q336 244.877 336.006 244.755Q336.012 244.632 336.024 244.51Q336.036 244.388 336.054 244.266Q336.072 244.145 336.096 244.025Q336.12 243.904 336.15 243.785Q336.18 243.666 336.215 243.549Q336.251 243.431 336.292 243.316Q336.334 243.2 336.381 243.087Q336.428 242.973 336.48 242.862Q336.533 242.751 336.59 242.643Q336.648 242.535 336.711 242.43Q336.774 242.324 336.843 242.222Q336.911 242.12 336.984 242.021Q337.057 241.923 337.135 241.828Q337.213 241.733 337.295 241.642Q337.378 241.551 337.464 241.464Q337.551 241.378 337.642 241.295Q337.733 241.213 337.828 241.135Q337.923 241.057 338.022 240.984Q338.12 240.911 338.222 240.843Q338.324 240.774 338.43 240.711Q338.535 240.648 338.643 240.59Q338.751 240.533 338.862 240.48Q338.973 240.428 339.087 240.381Q339.2 240.334 339.316 240.292Q339.431 240.251 339.549 240.215Q339.666 240.18 339.785 240.15Q339.904 240.12 340.025 240.096Q340.145 240.072 340.266 240.054Q340.388 240.036 340.51 240.024Q340.632 240.012 340.755 240.006Q340.877 240 341 240Z"/>
	<text font-size="14" font-family="Nimbus Sans" x="385.5, " y="273.5, ">
			A
	</text>
	<path fill="white" d="M351 240L351 240Q351 239.755 351.012 239.509Q351.024 239.264 351.048 239.02Q351.072 238.776 351.108 238.533Q351.144 238.29 351.192 238.049Q351.24 237.808 351.3 237.57Q351.359 237.332 351.431 237.097Q351.502 236.862 351.585 236.631Q351.667 236.4 351.761 236.173Q351.855 235.946 351.96 235.724Q352.065 235.503 352.181 235.286Q352.296 235.07 352.423 234.859Q352.549 234.648 352.685 234.444Q352.822 234.24 352.968 234.043Q353.114 233.846 353.27 233.656Q353.426 233.466 353.59 233.284Q353.755 233.102 353.929 232.929Q354.102 232.755 354.284 232.59Q354.466 232.426 354.656 232.27Q354.846 232.114 355.043 231.968Q355.24 231.822 355.444 231.685Q355.648 231.549 355.859 231.423Q356.069 231.296 356.286 231.181Q356.502 231.065 356.724 230.96Q356.946 230.855 357.173 230.761Q357.4 230.667 357.631 230.585Q357.862 230.502 358.097 230.431Q358.332 230.359 358.57 230.3Q358.808 230.24 359.049 230.192Q359.29 230.144 359.533 230.108Q359.776 230.072 360.02 230.048Q360.264 230.024 360.509 230.012Q360.754 230 361 230L365 230Q365.245 230 365.491 230.012Q365.736 230.024 365.98 230.048Q366.224 230.072 366.467 230.108Q366.71 230.144 366.951 230.192Q367.192 230.24 367.43 230.3Q367.668 230.359 367.903 230.431Q368.138 230.502 368.369 230.585Q368.6 230.667 368.827 230.761Q369.054 230.855 369.276 230.96Q369.497 231.065 369.714 231.181Q369.93 231.296 370.141 231.423Q370.352 231.549 370.556 231.685Q370.76 231.822 370.957 231.968Q371.154 232.114 371.344 232.27Q371.534 232.426 371.716 232.59Q371.897 232.755 372.071 232.929Q372.245 233.102 372.409 233.284Q372.574 233.466 372.73 233.656Q372.886 233.846 373.032 234.043Q373.178 234.24 373.315 234.444Q373.451 234.648 373.577 234.859Q373.703 235.07 373.819 235.286Q373.935 235.503 374.04 235.724Q374.145 235.946 374.239 236.173Q374.333 236.4 374.415 236.631Q374.498 236.862 374.569 237.097Q374.641 237.332 374.7 237.57Q374.76 237.808 374.808 238.049Q374.856 238.29 374.892 238.533Q374.928 238.776 374.952 239.02Q374.976 239.264 374.988 239.509Q375 239.755 375 240L375 240Q375 240.245 374.988 240.491Q374.976 240.736 374.952 240.98Q374.928 241.224 374.892 241.467Q374.856 241.71 374.808 241.951Q374.76 242.192 374.7 242.43Q374.641 242.668 374.569 242.903Q374.498 243.138 374.415 243.369Q374.333 243.6 374.239 243.827Q374.145 244.054 374.04 244.276Q373.935 244.497 373.819 244.714Q373.703 244.93 373.577 245.141Q373.451 245.352 373.315 245.556Q373.178 245.76 373.032 245.957Q372.886 246.154 372.73 246.344Q372.574 246.534 372.409 246.716Q372.245 246.897 372.071 247.071Q371.897 247.245 371.716 247.409Q371.534 247.574 371.344 247.73Q371.154 247.886 370.957 248.032Q370.76 248.178 370.556 248.315Q370.352 248.451 370.141 248.577Q369.93 248.703 369.714 248.819Q369.497 248.935 369.275 249.04Q369.054 249.145 368.827 249.239Q368.6 249.333 368.369 249.415Q368.138 249.498 367.903 249.569Q367.668 249.641 367.43 249.7Q367.192 249.76 366.951 249.808Q366.71 249.856 366.467 249.892Q366.224 249.928 365.98 249.952Q365.736 249.976 365.491 249.988Q365.245 250 365 250L361 250Q360.754 250 360.509 249.988Q360.264 249.976 360.02 249.952Q359.776 249.928 359.533 249.892Q359.29 249.856 359.049 249.808Q358.808 249.76 358.57 249.7Q358.332 249.641 358.097 249.569Q357.862 249.498 357.631 249.415Q357.4 249.333 357.173 249.239Q356.946 249.145 356.724 249.04Q356.502 248.935 356.286 248.819Q356.069 248.703 355.859 248.577Q355.648 248.451 355.444 248.315Q355.24 248.178 355.043 248.032Q354.846 247.886 354.656 247.73Q354.466 247.574 354.284 247.409Q354.102 247.245 353.929 247.071Q353.755 246.897 353.59 246.716Q353.426 246.534 353.27 246.344Q353.114 246.154 352.968 245.957Q352.822 245.76 352.685 245.556Q352.549 245.352 352.423 245.141Q352.296 244.93 352.181 244.714Q352.065 244.497 351.96 244.276Q351.855 244.054 351.761 243.827Q351.667 243.6 351.585 243.369Q351.502 243.138 351.431 242.903Q351.359 242.668 351.3 242.43Q351.24 242.192 351.192 241.951Q351.144 241.71 351.108 241.467Q351.072 241.224 351.048 240.98Q351.024 240.736 351.012 240.491Q351 240.245 351 240Z"/>
	<path fill="none" stroke="black" stroke-width="1.25" stroke-miterlimit="4" d="M351 240L351 240Q351 239.755 351.012 239.509Q351.024 239.264 351.048 239.02Q351.072 238.776 351.108 238.533Q351.144 238.29 351.192 238.049Q351.24 237.808 351.3 237.57Q351.359 237.332 351.431 237.097Q351.502 236.862 351.585 236.631Q351.667 236.4 351.761 236.173Q351.855 235.946 351.96 235.724Q352.065 235.503 352.181 235.286Q352.296 235.07 352.423 234.859Q352.549 234.648 352.685 234.444Q352.822 234.24 352.968 234.043Q353.114 233.846 353.27 233.656Q353.426 233.466 353.59 233.284Q353.755 233.102 353.929 232.929Q354.102 232.755 354.284 232.59Q354.466 232.426 354.656 232.27Q354.846 232.114 355.043 231.968Q355.24 231.822 355.444 231.685Q355.648 231.549 355.859 231.423Q356.069 231.296 356.286 231.181Q356.502 231.065 356.724 230.96Q356.946 230.855 357.173 230.761Q357.4 230.667 357.631 230.585Q357.862 230.502 358.097 230.431Q358.332 230.359 358.57 230.3Q358.808 230.24 359.049 230.192Q359.29 230.144 359.533 230.108Q359.776 230.072 360.02 230.048Q360.264 230.024 360.509 230.012Q360.754 230 361 230L365 230Q365.245 230 365.491 230.012Q365.736 230.024 365.98 230.048Q366.224 230.072 366.467 230.108Q366.71 230.144 366.951 230.192Q367.192 230.24 367.43 230.3Q367.668 230.359 367.903 230.431Q368.138 230.502 368.369 230.585Q368.6 230.667 368.827 230.761Q369.054 230.855 369.276 230.96Q369.497 231.065 369.714 231.181Q369.93 231.296 370.141 231.423Q370.352 231.549 370.556 231.685Q370.76 231.822 370.957 231.968Q371.154 232.114 371.344 232.27Q371.534 232.426 371.716 232.59Q371.897 232.755 372.071 232.929Q372.245 233.102 372.409 233.284Q372.574 233.466 372.73 233.656Q372.886 233.846 373.032 234.043Q373.178 234.24 373.315 234.444Q373.451 234.648 373.577 234.859Q373.703 235.07 373.819 235.286Q373.935 235.503 374.04 235.724Q374.145 235.946 374.239 236.173Q374.333 236.4 374.415 236.631Q374.498 236.862 374.569 237.097Q374.641 237.332 374.7 237.57Q374.76 237.808 374.808 238.049Q374.856 238.29 374.892 238.533Q374.928 238.776 374.952 239.02Q374.976 239.264 374.988 239.509Q375 239.755 375 240L375 240Q375 240.245 374.988 240.491Q374.976 240.736 374.952 240.98Q374.928 241.224 374.892 241.467Q374.856 241.71 374.808 241.951Q374.76 242.192 374.7 242.43Q374.641 242.668 374.569 242.903Q374.498 243.138 374.415 243.369Q374.333 243.6 374.239 243.827Q374.145 244.054 374.04 244.276Q373.935 244.497 373.819 244.714Q373.703 244.93 373.577 245.141Q373.451 245.352 373.315 245.556Q373.178 245.76 373.032 245.957Q372.886 246.154 372.73 246.344Q372.574 246.534 372.409 246.716Q372.245 246.897 372.071 247.071Q371.897 247.245 371.716 247.409Q371.534 247.574 371.344 247.73Q371.154 247.886 370.957 248.032Q370.76 248.178 370.556 248.315Q370.352 248.451 370.141 248.577Q369.93 248.703 369.714 248.819Q369.497 248.935 369.275 249.04Q369.054 249.145 368.827 249.239Q368.6 249.333 368.369 249.415Q368.138 249.498 367.903 249.569Q367.668 249.641 367.43 249.7Q367.192 249.76 366.951 249.808Q366.71 249.856 366.467 249.892Q366.224 249.928 365.98 249.952Q365.736 249.976 365.491 249.988Q365.245 250 365 250L361 250Q360.754 250 360.509 249.988Q360.264 249.976 360.02 249.952Q359.776 249.928 359.533 249.892Q359.29 249.856 359.049 249.808Q358.808 249.76 358.57 249.7Q358.332 249.641 358.097 249.569Q357.862 249.498 357.631 249.415Q357.4 249.333 357.173 249.239Q356.946 249.145 356.724 249.04Q356.502 248.935 356.286 248.819Q356.069 248.703 355.859 248.577Q355.648 248.451 355.444 248.315Q355.24 248.178 355.043 248.032Q354.846 247.886 354.656 247.73Q354.466 247.574 354.284 247.409Q354.102 247.245 353.929 247.071Q353.755 246.897 353.59 246.716Q353.426 246.534 353.27 246.344Q353.114 246.154 352.968 245.957Q352.822 245.76 352.685 245.556Q352.549 245.352 352.423 245.141Q352.296 244.93 352.181 244.714Q352.065 244.497 351.96 244.276Q351.855 244.054 351.761 243.827Q351.667 243.6 351.585 243.369Q351.502 243.138 351.431 242.903Q351.359 242.668 351.3 242.43Q351.24 242.192 351.192 241.951Q351.144 241.71 351.108 241.467Q351.072 241.224 351.048 240.98Q351.024 240.736 351.012 240.491Q351 240.245 351 240Z"/>
	<text font-size="8" font-family="Nimbus Sans" x="360.5, " y="241.5, ">
			P
	</text>
	<path fill="white" d="M181 105L279 105Q279.123 105 279.245 105.006Q279.368 105.012 279.49 105.024Q279.612 105.036 279.734 105.054Q279.855 105.072 279.975 105.096Q280.096 105.12 280.215 105.15Q280.334 105.18 280.451 105.215Q280.569 105.251 280.684 105.292Q280.8 105.334 280.913 105.381Q281.027 105.428 281.138 105.48Q281.249 105.533 281.357 105.59Q281.465 105.648 281.57 105.711Q281.676 105.774 281.778 105.843Q281.88 105.911 281.978 105.984Q282.077 106.057 282.172 106.135Q282.267 106.213 282.358 106.295Q282.449 106.378 282.536 106.464Q282.622 106.551 282.705 106.642Q282.787 106.733 282.865 106.828Q282.943 106.923 283.016 107.021Q283.089 107.12 283.157 107.222Q283.225 107.324 283.289 107.429Q283.352 107.535 283.41 107.643Q283.467 107.751 283.52 107.862Q283.572 107.973 283.619 108.087Q283.666 108.2 283.708 108.316Q283.749 108.431 283.785 108.549Q283.82 108.666 283.85 108.785Q283.88 108.904 283.904 109.025Q283.928 109.145 283.946 109.266Q283.964 109.388 283.976 109.51Q283.988 109.632 283.994 109.755Q284 109.877 284 110L284 160Q284 160.123 283.994 160.245Q283.988 160.368 283.976 160.49Q283.964 160.612 283.946 160.734Q283.928 160.855 283.904 160.975Q283.88 161.096 283.85 161.215Q283.82 161.334 283.785 161.451Q283.749 161.569 283.708 161.684Q283.666 161.8 283.619 161.913Q283.572 162.027 283.52 162.138Q283.467 162.249 283.41 162.357Q283.352 162.465 283.289 162.57Q283.225 162.676 283.157 162.778Q283.089 162.88 283.016 162.978Q282.943 163.077 282.865 163.172Q282.787 163.267 282.705 163.358Q282.622 163.449 282.536 163.536Q282.449 163.622 282.358 163.705Q282.267 163.787 282.172 163.865Q282.077 163.943 281.978 164.016Q281.88 164.089 281.778 164.157Q281.676 164.226 281.571 164.289Q281.465 164.352 281.357 164.41Q281.249 164.467 281.138 164.52Q281.027 164.572 280.913 164.619Q280.8 164.666 280.684 164.708Q280.569 164.749 280.451 164.785Q280.334 164.82 280.215 164.85Q280.096 164.88 279.975 164.904Q279.855 164.928 279.734 164.946Q279.612 164.964 279.49 164.976Q279.368 164.988 279.245 164.994Q279.123 165 279 165L181 165Q180.877 165 180.755 164.994Q180.632 164.988 180.51 164.976Q180.388 164.964 180.266 164.946Q180.145 164.928 180.025 164.904Q179.904 164.88 179.785 164.85Q179.666 164.82 179.549 164.785Q179.431 164.749 179.316 164.708Q179.2 164.666 179.087 164.619Q178.973 164.572 178.862 164.52Q178.751 164.467 178.643 164.41Q178.535 164.352 178.429 164.289Q178.324 164.226 178.222 164.157Q178.12 164.089 178.021 164.016Q177.923 163.943 177.828 163.865Q177.733 163.787 177.642 163.705Q177.551 163.622 177.464 163.536Q177.378 163.449 177.295 163.358Q177.213 163.267 177.135 163.172Q177.057 163.077 176.984 162.978Q176.911 162.88 176.843 162.778Q176.774 162.676 176.711 162.57Q176.648 162.465 176.59 162.357Q176.533 162.249 176.48 162.138Q176.428 162.027 176.381 161.913Q176.334 161.8 176.292 161.684Q176.251 161.569 176.215 161.451Q176.18 161.334 176.15 161.215Q176.12 161.096 176.096 160.975Q176.072 160.855 176.054 160.734Q176.036 160.612 176.024 160.49Q176.012 160.368 176.006 160.245Q176 160.123 176 160L176 110Q176 109.877 176.006 109.755Q176.012 109.632 176.024 109.51Q176.036 109.388 176.054 109.266Q176.072 109.145 176.096 109.025Q176.12 108.904 176.15 108.785Q176.18 108.666 176.215 108.549Q176.251 108.431 176.292 108.316Q176.334 108.2 176.381 108.087Q176.428 107.973 176.48 107.862Q176.533 107.751 176.59 107.643Q176.648 107.535 176.711 107.429Q176.774 107.324 176.843 107.222Q176.911 107.12 176.984 107.022Q177.057 106.923 177.135 106.828Q177.213 106.733 177.295 106.642Q177.378 106.551 177.464 106.464Q177.551 106.378 177.642 106.295Q177.733 106.213 177.828 106.135Q177.923 106.057 178.021 105.984Q178.12 105.911 178.222 105.843Q178.324 105.774 178.429 105.711Q178.535 105.648 178.643 105.59Q178.751 105.533 178.862 105.48Q178.973 105.428 179.087 105.381Q179.2 105.334 179.316 105.292Q179.431 105.251 179.549 105.215Q179.666 105.18 179.785 105.15Q179.904 105.12 180.025 105.096Q180.145 105.072 180.266 105.054Q180.388 105.036 180.51 105.024Q180.632 105.012 180.755 105.006Q180.877 105 181 105Z"/>
	<path fill="none" stroke="black" stroke-width="1.25" stroke-miterlimit="4" d="M181 105L279 105Q279.123 105 279.245 105.006Q279.368 105.012 279.49 105.024Q279.612 105.036 279.734 105.054Q279.855 105.072 279.975 105.096Q280.096 105.12 280.215 105.15Q280.334 105.18 280.451 105.215Q280.569 105.251 280.684 105.292Q280.8 105.334 280.913 105.381Q281.027 105.428 281.138 105.48Q281.249 105.533 281.357 105.59Q281.465 105.648 281.57 105.711Q281.676 105.774 281.778 105.843Q281.88 105.911 281.978 105.984Q282.077 106.057 282.172 106.135Q282.267 106.213 282.358 106.295Q282.449 106.378 282.536 106.464Q282.622 106.551 282.705 106.642Q282.787 106.733 282.865 106.828Q282.943 106.923 283.016 107.021Q283.089 107.12 283.157 107.222Q283.225 107.324 283.289 107.429Q283.352 107.535 283.41 107.643Q283.467 107.751 283.52 107.862Q283.572 107.973 283.619 108.087Q283.666 108.2 283.708 108.316Q283.749 108.431 283.785 108.549Q283.82 108.666 283.85 108.785Q283.88 108.904 283.904 109.025Q283.928 109.145 283.946 109.266Q283.964 109.388 283.976 109.51Q283.988 109.632 283.994 109.755Q284 109.877 284 110L284 160Q284 160.123 283.994 160.245Q283.988 160.368 283.976 160.49Q283.964 160.612 283.946 160.734Q283.928 160.855 283.904 160.975Q283.88 161.096 283.85 161.215Q283.82 161.334 283.785 161.451Q283.749 161.569 283.708 161.684Q283.666 161.8 283.619 161.913Q283.572 162.027 283.52 162.138Q283.467 162.249 283.41 162.357Q283.352 162.465 283.289 162.57Q283.225 162.676 283.157 162.778Q283.089 162.88 283.016 162.978Q282.943 163.077 282.865 163.172Q282.787 163.267 282.705 163.358Q282.622 163.449 282.536 163.536Q282.449 163.622 282.358 163.705Q282.267 163.787 282.172 163.865Q282.077 163.943 281.978 164.016Q281.88 164.089 281.778 164.157Q281.676 164.226 281.571 164.289Q281.465 164.352 281.357 164.41Q281.249 164.467 281.138 164.52Q281.027 164.572 280.913 164.619Q280.8 164.666 280.684 164.708Q280.569 164.749 280.451 164.785Q280.334 164.82 280.215 164.85Q280.096 164.88 279.975 164.904Q279.855 164.928 279.734 164.946Q279.612 164.964 279.49 164.976Q279.368 164.988 279.245 164.994Q279.123 165 279 165L181 165Q180.877 165 180.755 164.994Q180.632 164.988 180.51 164.976Q180.388 164.964 180.266 164.946Q180.145 164.928 180.025 164.904Q179.904 164.88 179.785 164.85Q179.666 164.82 179.549 164.785Q179.431 164.749 179.316 164.708Q179.2 164.666 179.087 164.619Q178.973 164.572 178.862 164.52Q178.751 164.467 178.643 164.41Q178.535 164.352 178.429 164.289Q178.324 164.226 178.222 164.157Q178.12 164.089 178.021 164.016Q177.923 163.943 177.828 163.865Q177.733 163.787 177.642 163.705Q177.551 163.622 177.464 163.536Q177.378 163.449 177.295 163.358Q177.213 163.267 177.135 163.172Q177.057 163.077 176.984 162.978Q176.911 162.88 176.843 162.778Q176.774 162.676 176.711 162.57Q176.648 162.465 176.59 162.357Q176.533 162.249 176.48 162.138Q176.428 162.027 176.381 161.913Q176.334 161.8 176.292 161.684Q176.251 161.569 176.215 161.451Q176.18 161.334 176.15 161.215Q176.12 161.096 176.096 160.975Q176.072 160.855 176.054 160.734Q176.036 160.612 176.024 160.49Q176.012 160.368 176.006 160.245Q176 160.123 176 160L176 110Q176 109.877 176.006 109.755Q176.012 109.632 176.024 109.51Q176.036 109.388 176.054 109.266Q176.072 109.145 176.096 109.025Q176.12 108.904 176.15 108.785Q176.18 108.666 176.215 108.549Q176.251 108.431 176.292 108.316Q176.334 108.2 176.381 108.087Q176.428 107.973 176.48 107.862Q176.533 107.751 176.59 107.643Q176.648 107.535 176.711 107.429Q176.774 107.324 176.843 107.222Q176.911 107.12 176.984 107.022Q177.057 106.923 177.135 106.828Q177.213 106.733 177.295 106.642Q177.378 106.551 177.464 106.464Q177.551 106.378 177.642 106.295Q177.733 106.213 177.828 106.135Q177.923 106.057 178.021 105.984Q178.12 105.911 178.222 105.843Q178.324 105.774 178.429 105.711Q178.535 105.648 178.643 105.59Q178.751 105.533 178.862 105.48Q178.973 105.428 179.087 105.381Q179.2 105.334 179.316 105.292Q179.431 105.251 179.549 105.215Q179.666 105.18 179.785 105.15Q179.904 105.12 180.025 105.096Q180.145 105.072 180.266 105.054Q180.388 105.036 180.51 105.024Q180.632 105.012 180.755 105.006Q180.877 105 181 105Z"/>
	<text font-size="14" font-family="Nimbus Sans" x="225.5, " y="138.5, ">
			B
	</text>
	<path fill="white" d="M218 270L206 270"/>
	<path fill="none" stroke="black" stroke-width="1.25" stroke-miterlimit="4" d="M218 270L206 270"/>
	<path fill="white" d="M242 270L254 270"/>
	<path fill="none" stroke="black" stroke-width="1.25" stroke-miterlimit="4" d="M242 270L254 270"/>
	<path fill="white" d="M218 258L242 258L242 282L218 282L218 258Z"/>
	<path fill="none" stroke="black" stroke-width="1.25" stroke-miterlimit="4" d="M218 258L242 258L242 282L218 282L218 258Z"/>
	<path fill="none" stroke="black" stroke-width="1.25" stroke-miterlimit="4" d="M206 270L139 270"/>
	<path fill="none" stroke="black" stroke-width="1.25" stroke-miterlimit="4" d="M254 270L326 270"/>
	<path d="M326 265L336 270L326 275L326 265Z"/>
	<path fill="none" stroke="black" stroke-width="1.25" stroke-miterlimit="4" d="M326 265L336 270L326 275L326 265Z"/>
	<path fill="none" stroke="black" stroke-width="1.25" stroke-miterlimit="4" d="M230 165L230 248"/>
	<path fill="white" d="M235 253Q235 253.123 234.994 253.245Q234.988 253.368 234.976 253.49Q234.964 253.612 234.946 253.734Q234.928 253.855 234.904 253.975Q234.88 254.096 234.85 254.215Q234.82 254.334 234.785 254.451Q234.749 254.569 234.708 254.684Q234.666 254.8 234.619 254.913Q234.572 255.027 234.52 255.138Q234.467 255.249 234.41 255.357Q234.352 255.465 234.289 255.57Q234.226 255.676 234.157 255.778Q234.089 255.88 234.016 255.978Q233.943 256.077 233.865 256.172Q233.787 256.267 233.705 256.358Q233.622 256.449 233.536 256.536Q233.449 256.622 233.358 256.705Q233.267 256.787 233.172 256.865Q233.077 256.943 232.978 257.016Q232.88 257.089 232.778 257.157Q232.676 257.226 232.57 257.289Q232.465 257.352 232.357 257.41Q232.249 257.467 232.138 257.52Q232.027 257.572 231.913 257.619Q231.8 257.666 231.684 257.708Q231.569 257.749 231.451 257.785Q231.334 257.82 231.215 257.85Q231.096 257.88 230.975 257.904Q230.855 257.928 230.734 257.946Q230.612 257.964 230.49 257.976Q230.368 257.988 230.245 257.994Q230.123 258 230 258Q229.877 258 229.755 257.994Q229.632 257.988 229.51 257.976Q229.388 257.964 229.266 257.946Q229.145 257.928 229.025 257.904Q228.904 257.88 228.785 257.85Q228.666 257.82 228.549 257.785Q228.431 257.749 228.316 257.708Q228.2 257.666 228.087 257.619Q227.973 257.572 227.862 257.52Q227.751 257.467 227.643 257.41Q227.535 257.352 227.429 257.289Q227.324 257.225 227.222 257.157Q227.12 257.089 227.021 257.016Q226.923 256.943 226.828 256.865Q226.733 256.787 226.642 256.705Q226.551 256.622 226.464 256.536Q226.378 256.449 226.295 256.358Q226.213 256.267 226.135 256.172Q226.057 256.077 225.984 255.978Q225.911 255.88 225.843 255.778Q225.774 255.676 225.711 255.57Q225.648 255.465 225.59 255.357Q225.532 255.249 225.48 255.138Q225.428 255.027 225.381 254.913Q225.334 254.8 225.292 254.684Q225.251 254.569 225.215 254.451Q225.18 254.334 225.15 254.215Q225.12 254.096 225.096 253.975Q225.072 253.855 225.054 253.734Q225.036 253.612 225.024 253.49Q225.012 253.368 225.006 253.245Q225 253.123 225 253Q225 252.877 225.006 252.755Q225.012 252.632 225.024 252.51Q225.036 252.388 225.054 252.266Q225.072 252.145 225.096 252.025Q225.12 251.904 225.15 251.785Q225.18 251.666 225.215 251.549Q225.251 251.431 225.292 251.316Q225.334 251.2 225.381 251.087Q225.428 250.973 225.48 250.862Q225.533 250.751 225.59 250.643Q225.648 250.535 225.711 250.429Q225.774 250.324 225.843 250.222Q225.911 250.12 225.984 250.021Q226.057 249.923 226.135 249.828Q226.213 249.733 226.295 249.642Q226.378 249.551 226.464 249.464Q226.551 249.378 226.642 249.295Q226.733 249.213 226.828 249.135Q226.923 249.057 227.021 248.984Q227.12 248.911 227.222 248.843Q227.324 248.774 227.429 248.711Q227.535 248.648 227.643 248.59Q227.751 248.533 227.862 248.48Q227.973 248.428 228.087 248.381Q228.2 248.334 228.316 248.292Q228.431 248.251 228.549 248.215Q228.666 248.18 228.785 248.15Q228.904 248.12 229.025 248.096Q229.145 248.072 229.266 248.054Q229.388 248.036 229.51 248.024Q229.632 248.012 229.755 248.006Q229.877 248 230 248Q230.123 248 230.245 248.006Q230.368 248.012 230.49 248.024Q230.612 248.036 230.734 248.054Q230.855 248.072 230.975 248.096Q231.096 248.12 231.215 248.15Q231.334 248.18 231.451 248.215Q231.569 248.251 231.684 248.292Q231.8 248.334 231.913 248.381Q232.027 248.428 232.138 248.48Q232.249 248.533 232.357 248.59Q232.465 248.648 232.571 248.711Q232.676 248.774 232.778 248.843Q232.88 248.911 232.978 248.984Q233.077 249.057 233.172 249.135Q233.267 249.213 233.358 249.295Q233.449 249.378 233.536 249.464Q233.622 249.551 233.705 249.642Q233.787 249.733 233.865 249.828Q233.943 249.923 234.016 250.022Q234.089 250.12 234.157 250.222Q234.226 250.324 234.289 250.429Q234.352 250.535 234.41 250.643Q234.467 250.751 234.52 250.862Q234.572 250.973 234.619 251.087Q234.666 251.2 234.708 251.316Q234.749 251.431 234.785 251.549Q234.82 251.666 234.85 251.785Q234.88 251.904 234.904 252.025Q234.928 252.145 234.946 252.266Q234.964 252.388 234.976 252.51Q234.988 252.632 234.994 252.755Q235 252.877 235 253Z"/>
	<path fill="none" stroke="black" stroke-width="1.25" stroke-miterlimit="4" d="M235 253Q235 253.123 234.994 253.245Q234.988 253.368 234.976 253.49Q234.964 253.612 234.946 253.734Q234.928 253.855 234.904 253.975Q234.88 254.096 234.85 254.215Q234.82 254.334 234.785 254.451Q234.749 254.569 234.708 254.684Q234.666 254.8 234.619 254.913Q234.572 255.027 234.52 255.138Q234.467 255.249 234.41 255.357Q234.352 255.465 234.289 255.57Q234.226 255.676 234.157 255.778Q234.089 255.88 234.016 255.978Q233.943 256.077 233.865 256.172Q233.787 256.267 233.705 256.358Q233.622 256.449 233.536 256.536Q233.449 256.622 233.358 256.705Q233.267 256.787 233.172 256.865Q233.077 256.943 232.978 257.016Q232.88 257.089 232.778 257.157Q232.676 257.226 232.57 257.289Q232.465 257.352 232.357 257.41Q232.249 257.467 232.138 257.52Q232.027 257.572 231.913 257.619Q231.8 257.666 231.684 257.708Q231.569 257.749 231.451 257.785Q231.334 257.82 231.215 257.85Q231.096 257.88 230.975 257.904Q230.855 257.928 230.734 257.946Q230.612 257.964 230.49 257.976Q230.368 257.988 230.245 257.994Q230.123 258 230 258Q229.877 258 229.755 257.994Q229.632 257.988 229.51 257.976Q229.388 257.964 229.266 257.946Q229.145 257.928 229.025 257.904Q228.904 257.88 228.785 257.85Q228.666 257.82 228.549 257.785Q228.431 257.749 228.316 257.708Q228.2 257.666 228.087 257.619Q227.973 257.572 227.862 257.52Q227.751 257.467 227.643 257.41Q227.535 257.352 227.429 257.289Q227.324 257.225 227.222 257.157Q227.12 257.089 227.021 257.016Q226.923 256.943 226.828 256.865Q226.733 256.787 226.642 256.705Q226.551 256.622 226.464 256.536Q226.378 256.449 226.295 256.358Q226.213 256.267 226.135 256.172Q226.057 256.077 225.984 255.978Q225.911 255.88 225.843 255.778Q225.774 255.676 225.711 255.57Q225.648 255.465 225.59 255.357Q225.532 255.249 225.48 255.138Q225.428 255.027 225.381 254.913Q225.334 254.8 225.292 254.684Q225.251 254.569 225.215 254.451Q225.18 254.334 225.15 254.215Q225.12 254.096 225.096 253.975Q225.072 253.855 225.054 253.734Q225.036 253.612 225.024 253.49Q225.012 253.368 225.006 253.245Q225 253.123 225 253Q225 252.877 225.006 252.755Q225.012 252.632 225.024 252.51Q225.036 252.388 225.054 252.266Q225.072 252.145 225.096 252.025Q225.12 251.904 225.15 251.785Q225.18 251.666 225.215 251.549Q225.251 251.431 225.292 251.316Q225.334 251.2 225.381 251.087Q225.428 250.973 225.48 250.862Q225.533 250.751 225.59 250.643Q225.648 250.535 225.711 250.429Q225.774 250.324 225.843 250.222Q225.911 250.12 225.984 250.021Q226.057 249.923 226.135 249.828Q226.213 249.733 226.295 249.642Q226.378 249.551 226.464 249.464Q226.551 249.378 226.642 249.295Q226.733 249.213 226.828 249.135Q226.923 249.057 227.021 248.984Q227.12 248.911 227.222 248.843Q227.324 248.774 227.429 248.711Q227.535 248.648 227.643 248.59Q227.751 248.533 227.862 248.48Q227.973 248.428 228.087 248.381Q228.2 248.334 228.316 248.292Q228.431 248.251 228.549 248.215Q228.666 248.18 228.785 248.15Q228.904 248.12 229.025 248.096Q229.145 248.072 229.266 248.054Q229.388 248.036 229.51 248.024Q229.632 248.012 229.755 248.006Q229.877 248 230 248Q230.123 248 230.245 248.006Q230.368 248.012 230.49 248.024Q230.612 248.036 230.734 248.054Q230.855 248.072 230.975 248.096Q231.096 248.12 231.215 248.15Q231.334 248.18 231.451 248.215Q231.569 248.251 231.684 248.292Q231.8 248.334 231.913 248.381Q232.027 248.428 232.138 248.48Q232.249 248.533 232.357 248.59Q232.465 248.648 232.571 248.711Q232.676 248.774 232.778 248.843Q232.88 248.911 232.978 248.984Q233.077 249.057 233.172 249.135Q233.267 249.213 233.358 249.295Q233.449 249.378 233.536 249.464Q233.622 249.551 233.705 249.642Q233.787 249.733 233.865 249.828Q233.943 249.923 234.016 250.022Q234.089 250.12 234.157 250.222Q234.226 250.324 234.289 250.429Q234.352 250.535 234.41 250.643Q234.467 250.751 234.52 250.862Q234.572 250.973 234.619 251.087Q234.666 251.2 234.708 251.316Q234.749 251.431 234.785 251.549Q234.82 251.666 234.85 251.785Q234.88 251.904 234.904 252.025Q234.928 252.145 234.946 252.266Q234.964 252.388 234.976 252.51Q234.988 252.632 234.994 252.755Q235 252.877 235 253Z"/>
</svg>
