<svg class="rich-terminal" viewBox="0 0 653 660.0" xmlns="http://www.w3.org/2000/svg">
    <!-- Generated with Rich https://www.textualize.io -->
    <style>

    @font-face {
        font-family: "Fira Code";
        src: local("FiraCode-Regular"),
                url("https://cdnjs.cloudflare.com/ajax/libs/firacode/6.2.0/woff2/FiraCode-Regular.woff2") format("woff2"),
                url("https://cdnjs.cloudflare.com/ajax/libs/firacode/6.2.0/woff/FiraCode-Regular.woff") format("woff");
        font-style: normal;
        font-weight: 400;
    }
    @font-face {
        font-family: "Fira Code";
        src: local("FiraCode-Bold"),
                url("https://cdnjs.cloudflare.com/ajax/libs/firacode/6.2.0/woff2/FiraCode-Bold.woff2") format("woff2"),
                url("https://cdnjs.cloudflare.com/ajax/libs/firacode/6.2.0/woff/FiraCode-Bold.woff") format("woff");
        font-style: bold;
        font-weight: 700;
    }

    .terminal-595841596-matrix {
        font-family: Fira Code, monospace;
        font-size: 20px;
        line-height: 24.4px;
        font-variant-east-asian: full-width;
    }

    .terminal-595841596-title {
        font-size: 18px;
        font-weight: bold;
        font-family: arial;
    }

    .terminal-595841596-r1 { fill: #c5c8c6 }
.terminal-595841596-r2 { fill: #e3e3e3 }
.terminal-595841596-r3 { fill: #989898 }
.terminal-595841596-r4 { fill: #808080 }
.terminal-595841596-r5 { fill: #e1e1e1 }
.terminal-595841596-r6 { fill: #808080;font-style: italic; }
.terminal-595841596-r7 { fill: #1e1e1e }
.terminal-595841596-r8 { fill: #0178d4 }
.terminal-595841596-r9 { fill: #787878 }
.terminal-595841596-r10 { fill: #e2e2e2 }
.terminal-595841596-r11 { fill: #fea62b;font-weight: bold }
.terminal-595841596-r12 { fill: #a7a9ab }
.terminal-595841596-r13 { fill: #e2e3e3 }
    </style>

    <defs>
    <clipPath id="terminal-595841596-clip-terminal">
      <rect x="0" y="0" width="633.4" height="609.0" />
    </clipPath>
    <clipPath id="terminal-595841596-line-0">
    <rect x="0" y="1.5" width="634.4" height="24.65"/>
            </clipPath>
<clipPath id="terminal-595841596-line-1">
    <rect x="0" y="25.9" width="634.4" height="24.65"/>
            </clipPath>
<clipPath id="terminal-595841596-line-2">
    <rect x="0" y="50.3" width="634.4" height="24.65"/>
            </clipPath>
<clipPath id="terminal-595841596-line-3">
    <rect x="0" y="74.7" width="634.4" height="24.65"/>
            </clipPath>
<clipPath id="terminal-595841596-line-4">
    <rect x="0" y="99.1" width="634.4" height="24.65"/>
            </clipPath>
<clipPath id="terminal-595841596-line-5">
    <rect x="0" y="123.5" width="634.4" height="24.65"/>
            </clipPath>
<clipPath id="terminal-595841596-line-6">
    <rect x="0" y="147.9" width="634.4" height="24.65"/>
            </clipPath>
<clipPath id="terminal-595841596-line-7">
    <rect x="0" y="172.3" width="634.4" height="24.65"/>
            </clipPath>
<clipPath id="terminal-595841596-line-8">
    <rect x="0" y="196.7" width="634.4" height="24.65"/>
            </clipPath>
<clipPath id="terminal-595841596-line-9">
    <rect x="0" y="221.1" width="634.4" height="24.65"/>
            </clipPath>
<clipPath id="terminal-595841596-line-10">
    <rect x="0" y="245.5" width="634.4" height="24.65"/>
            </clipPath>
<clipPath id="terminal-595841596-line-11">
    <rect x="0" y="269.9" width="634.4" height="24.65"/>
            </clipPath>
<clipPath id="terminal-595841596-line-12">
    <rect x="0" y="294.3" width="634.4" height="24.65"/>
            </clipPath>
<clipPath id="terminal-595841596-line-13">
    <rect x="0" y="318.7" width="634.4" height="24.65"/>
            </clipPath>
<clipPath id="terminal-595841596-line-14">
    <rect x="0" y="343.1" width="634.4" height="24.65"/>
            </clipPath>
<clipPath id="terminal-595841596-line-15">
    <rect x="0" y="367.5" width="634.4" height="24.65"/>
            </clipPath>
<clipPath id="terminal-595841596-line-16">
    <rect x="0" y="391.9" width="634.4" height="24.65"/>
            </clipPath>
<clipPath id="terminal-595841596-line-17">
    <rect x="0" y="416.3" width="634.4" height="24.65"/>
            </clipPath>
<clipPath id="terminal-595841596-line-18">
    <rect x="0" y="440.7" width="634.4" height="24.65"/>
            </clipPath>
<clipPath id="terminal-595841596-line-19">
    <rect x="0" y="465.1" width="634.4" height="24.65"/>
            </clipPath>
<clipPath id="terminal-595841596-line-20">
    <rect x="0" y="489.5" width="634.4" height="24.65"/>
            </clipPath>
<clipPath id="terminal-595841596-line-21">
    <rect x="0" y="513.9" width="634.4" height="24.65"/>
            </clipPath>
<clipPath id="terminal-595841596-line-22">
    <rect x="0" y="538.3" width="634.4" height="24.65"/>
            </clipPath>
<clipPath id="terminal-595841596-line-23">
    <rect x="0" y="562.7" width="634.4" height="24.65"/>
            </clipPath>
    </defs>

    <rect fill="#292929" stroke="rgba(255,255,255,0.35)" stroke-width="1" x="1" y="1" width="651" height="658" rx="8"/><text class="terminal-595841596-title" fill="#c5c8c6" text-anchor="middle" x="325" y="27">dimAns&#160;Calculator</text>
            <g transform="translate(26,22)">
            <circle cx="0" cy="0" r="7" fill="#ff5f57"/>
            <circle cx="22" cy="0" r="7" fill="#febc2e"/>
            <circle cx="44" cy="0" r="7" fill="#28c840"/>
            </g>
        
    <g transform="translate(9, 41)" clip-path="url(#terminal-595841596-clip-terminal)">
    <rect fill="#282828" x="0" y="1.5" width="12.2" height="24.65" shape-rendering="crispEdges"/><rect fill="#282828" x="12.2" y="1.5" width="12.2" height="24.65" shape-rendering="crispEdges"/><rect fill="#282828" x="24.4" y="1.5" width="73.2" height="24.65" shape-rendering="crispEdges"/><rect fill="#282828" x="97.6" y="1.5" width="244" height="24.65" shape-rendering="crispEdges"/><rect fill="#282828" x="341.6" y="1.5" width="170.8" height="24.65" shape-rendering="crispEdges"/><rect fill="#282828" x="512.4" y="1.5" width="12.2" height="24.65" shape-rendering="crispEdges"/><rect fill="#282828" x="524.6" y="1.5" width="0" height="24.65" shape-rendering="crispEdges"/><rect fill="#282828" x="524.6" y="1.5" width="109.8" height="24.65" shape-rendering="crispEdges"/><rect fill="#1e1e1e" x="0" y="25.9" width="48.8" height="24.65" shape-rendering="crispEdges"/><rect fill="#1e1e1e" x="48.8" y="25.9" width="12.2" height="24.65" shape-rendering="crispEdges"/><rect fill="#1e1e1e" x="61" y="25.9" width="12.2" height="24.65" shape-rendering="crispEdges"/><rect fill="#1e1e1e" x="73.2" y="25.9" width="463.6" height="24.65" shape-rendering="crispEdges"/><rect fill="#1e1e1e" x="536.8" y="25.9" width="97.6" height="24.65" shape-rendering="crispEdges"/><rect fill="#1e1e1e" x="0" y="50.3" width="158.6" height="24.65" shape-rendering="crispEdges"/><rect fill="#1e1e1e" x="158.6" y="50.3" width="475.8" height="24.65" shape-rendering="crispEdges"/><rect fill="#1e1e1e" x="0" y="74.7" width="634.4" height="24.65" shape-rendering="crispEdges"/><rect fill="#1e1e1e" x="0" y="99.1" width="48.8" height="24.65" shape-rendering="crispEdges"/><rect fill="#1e1e1e" x="48.8" y="99.1" width="12.2" height="24.65" shape-rendering="crispEdges"/><rect fill="#1e1e1e" x="61" y="99.1" width="12.2" height="24.65" shape-rendering="crispEdges"/><rect fill="#1e1e1e" x="73.2" y="99.1" width="244" height="24.65" shape-rendering="crispEdges"/><rect fill="#1e1e1e" x="317.2" y="99.1" width="317.2" height="24.65" shape-rendering="crispEdges"/><rect fill="#1e1e1e" x="0" y="123.5" width="158.6" height="24.65" shape-rendering="crispEdges"/><rect fill="#1e1e1e" x="158.6" y="123.5" width="475.8" height="24.65" shape-rendering="crispEdges"/><rect fill="#1e1e1e" x="0" y="147.9" width="634.4" height="24.65" shape-rendering="crispEdges"/><rect fill="#1e1e1e" x="0" y="172.3" width="85.4" height="24.65" shape-rendering="crispEdges"/><rect fill="#1e1e1e" x="85.4" y="172.3" width="549" height="24.65" shape-rendering="crispEdges"/><rect fill="#1e1e1e" x="0" y="196.7" width="634.4" height="24.65" shape-rendering="crispEdges"/><rect fill="#1e1e1e" x="0" y="221.1" width="85.4" height="24.65" shape-rendering="crispEdges"/><rect fill="#1e1e1e" x="85.4" y="221.1" width="183" height="24.65" shape-rendering="crispEdges"/><rect fill="#1e1e1e" x="268.4" y="221.1" width="366" height="24.65" shape-rendering="crispEdges"/><rect fill="#1e1e1e" x="0" y="245.5" width="85.4" height="24.65" shape-rendering="crispEdges"/><rect fill="#1e1e1e" x="85.4" y="245.5" width="146.4" height="24.65" shape-rendering="crispEdges"/><rect fill="#1e1e1e" x="231.8" y="245.5" width="402.6" height="24.65" shape-rendering="crispEdges"/><rect fill="#1e1e1e" x="0" y="269.9" width="85.4" height="24.65" shape-rendering="crispEdges"/><rect fill="#1e1e1e" x="85.4" y="269.9" width="146.4" height="24.65" shape-rendering="crispEdges"/><rect fill="#1e1e1e" x="231.8" y="269.9" width="402.6" height="24.65" shape-rendering="crispEdges"/><rect fill="#1e1e1e" x="0" y="294.3" width="85.4" height="24.65" shape-rendering="crispEdges"/><rect fill="#1e1e1e" x="85.4" y="294.3" width="549" height="24.65" shape-rendering="crispEdges"/><rect fill="#1e1e1e" x="0" y="318.7" width="85.4" height="24.65" shape-rendering="crispEdges"/><rect fill="#1e1e1e" x="85.4" y="318.7" width="292.8" height="24.65" shape-rendering="crispEdges"/><rect fill="#1e1e1e" x="378.2" y="318.7" width="256.2" height="24.65" shape-rendering="crispEdges"/><rect fill="#1e1e1e" x="0" y="343.1" width="85.4" height="24.65" shape-rendering="crispEdges"/><rect fill="#1e1e1e" x="85.4" y="343.1" width="414.8" height="24.65" shape-rendering="crispEdges"/><rect fill="#1e1e1e" x="500.2" y="343.1" width="134.2" height="24.65" shape-rendering="crispEdges"/><rect fill="#1e1e1e" x="0" y="367.5" width="634.4" height="24.65" shape-rendering="crispEdges"/><rect fill="#1e1e1e" x="0" y="391.9" width="634.4" height="24.65" shape-rendering="crispEdges"/><rect fill="#1e1e1e" x="0" y="416.3" width="634.4" height="24.65" shape-rendering="crispEdges"/><rect fill="#1e1e1e" x="0" y="440.7" width="634.4" height="24.65" shape-rendering="crispEdges"/><rect fill="#1e1e1e" x="0" y="465.1" width="24.4" height="24.65" shape-rendering="crispEdges"/><rect fill="#1e1e1e" x="24.4" y="465.1" width="0" height="24.65" shape-rendering="crispEdges"/><rect fill="#1e1e1e" x="24.4" y="465.1" width="610" height="24.65" shape-rendering="crispEdges"/><rect fill="#0178d4" x="0" y="489.5" width="12.2" height="24.65" shape-rendering="crispEdges"/><rect fill="#262626" x="12.2" y="489.5" width="610" height="24.65" shape-rendering="crispEdges"/><rect fill="#1e1e1e" x="622.2" y="489.5" width="12.2" height="24.65" shape-rendering="crispEdges"/><rect fill="#0178d4" x="0" y="513.9" width="12.2" height="24.65" shape-rendering="crispEdges"/><rect fill="#262626" x="12.2" y="513.9" width="12.2" height="24.65" shape-rendering="crispEdges"/><rect fill="#e1e1e1" x="24.4" y="513.9" width="12.2" height="24.65" shape-rendering="crispEdges"/><rect fill="#262626" x="36.6" y="513.9" width="439.2" height="24.65" shape-rendering="crispEdges"/><rect fill="#262626" x="475.8" y="513.9" width="134.2" height="24.65" shape-rendering="crispEdges"/><rect fill="#262626" x="610" y="513.9" width="12.2" height="24.65" shape-rendering="crispEdges"/><rect fill="#1e1e1e" x="622.2" y="513.9" width="12.2" height="24.65" shape-rendering="crispEdges"/><rect fill="#0178d4" x="0" y="538.3" width="12.2" height="24.65" shape-rendering="crispEdges"/><rect fill="#262626" x="12.2" y="538.3" width="610" height="24.65" shape-rendering="crispEdges"/><rect fill="#1e1e1e" x="622.2" y="538.3" width="12.2" height="24.65" shape-rendering="crispEdges"/><rect fill="#1e1e1e" x="0" y="562.7" width="634.4" height="24.65" shape-rendering="crispEdges"/><rect fill="#24292f" x="0" y="587.1" width="48.8" height="24.65" shape-rendering="crispEdges"/><rect fill="#24292f" x="48.8" y="587.1" width="219.6" height="24.65" shape-rendering="crispEdges"/><rect fill="#24292f" x="268.4" y="587.1" width="48.8" height="24.65" shape-rendering="crispEdges"/><rect fill="#24292f" x="317.2" y="587.1" width="109.8" height="24.65" shape-rendering="crispEdges"/><rect fill="#24292f" x="427" y="587.1" width="48.8" height="24.65" shape-rendering="crispEdges"/><rect fill="#24292f" x="475.8" y="587.1" width="61" height="24.65" shape-rendering="crispEdges"/><rect fill="#24292f" x="536.8" y="587.1" width="97.6" height="24.65" shape-rendering="crispEdges"/>
    <g class="terminal-595841596-matrix">
    <text class="terminal-595841596-r2" x="12.2" y="20" textLength="12.2" clip-path="url(#terminal-595841596-line-0)">⭘</text><text class="terminal-595841596-r2" x="97.6" y="20" textLength="244" clip-path="url(#terminal-595841596-line-0)">dimAns&#160;Calculator&#160;—&#160;</text><text class="terminal-595841596-r3" x="341.6" y="20" textLength="170.8" clip-path="url(#terminal-595841596-line-0)">Version&#160;0.0.23</text><text class="terminal-595841596-r1" x="634.4" y="20" textLength="12.2" clip-path="url(#terminal-595841596-line-0)">
</text><text class="terminal-595841596-r4" x="0" y="44.4" textLength="48.8" clip-path="url(#terminal-595841596-line-1)">r(1)</text><text class="terminal-595841596-r4" x="61" y="44.4" textLength="12.2" clip-path="url(#terminal-595841596-line-1)">=</text><text class="terminal-595841596-r5" x="73.2" y="44.4" textLength="463.6" clip-path="url(#terminal-595841596-line-1)">&#160;(1/2)&#160;*&#160;(50&#160;N&#160;/&#160;(1000&#160;kg))&#160;*&#160;(20&#160;s)^2</text><text class="terminal-595841596-r1" x="634.4" y="44.4" textLength="12.2" clip-path="url(#terminal-595841596-line-1)">
</text><text class="terminal-595841596-r5" x="0" y="68.8" textLength="158.6" clip-path="url(#terminal-595841596-line-2)">&#160;&#160;&#160;&#160;&#160;&#160;&#160;10.0&#160;m</text><text class="terminal-595841596-r1" x="634.4" y="68.8" textLength="12.2" clip-path="url(#terminal-595841596-line-2)">
</text><text class="terminal-595841596-r1" x="634.4" y="93.2" textLength="12.2" clip-path="url(#terminal-595841596-line-3)">
</text><text class="terminal-595841596-r4" x="0" y="117.6" textLength="48.8" clip-path="url(#terminal-595841596-line-4)">r(0)</text><text class="terminal-595841596-r4" x="61" y="117.6" textLength="12.2" clip-path="url(#terminal-595841596-line-4)">=</text><text class="terminal-595841596-r5" x="73.2" y="117.6" textLength="244" clip-path="url(#terminal-595841596-line-4)">&#160;10&#160;kg&#160;*&#160;(5&#160;m&#160;/&#160;s^2)</text><text class="terminal-595841596-r1" x="634.4" y="117.6" textLength="12.2" clip-path="url(#terminal-595841596-line-4)">
</text><text class="terminal-595841596-r5" x="0" y="142" textLength="158.6" clip-path="url(#terminal-595841596-line-5)">&#160;&#160;&#160;&#160;&#160;&#160;&#160;50.0&#160;N</text><text class="terminal-595841596-r1" x="634.4" y="142" textLength="12.2" clip-path="url(#terminal-595841596-line-5)">
</text><text class="terminal-595841596-r1" x="634.4" y="166.4" textLength="12.2" clip-path="url(#terminal-595841596-line-6)">
</text><text class="terminal-595841596-r4" x="85.4" y="190.8" textLength="549" clip-path="url(#terminal-595841596-line-7)">─────────────────────────────────────────────</text><text class="terminal-595841596-r1" x="634.4" y="190.8" textLength="12.2" clip-path="url(#terminal-595841596-line-7)">
</text><text class="terminal-595841596-r1" x="634.4" y="215.2" textLength="12.2" clip-path="url(#terminal-595841596-line-8)">
</text><text class="terminal-595841596-r6" x="85.4" y="239.6" textLength="183" clip-path="url(#terminal-595841596-line-9)">964&#160;identifiers</text><text class="terminal-595841596-r1" x="634.4" y="239.6" textLength="12.2" clip-path="url(#terminal-595841596-line-9)">
</text><text class="terminal-595841596-r6" x="85.4" y="264" textLength="146.4" clip-path="url(#terminal-595841596-line-10)">3405&#160;aliases</text><text class="terminal-595841596-r1" x="634.4" y="264" textLength="12.2" clip-path="url(#terminal-595841596-line-10)">
</text><text class="terminal-595841596-r6" x="85.4" y="288.4" textLength="146.4" clip-path="url(#terminal-595841596-line-11)">55&#160;functions</text><text class="terminal-595841596-r1" x="634.4" y="288.4" textLength="12.2" clip-path="url(#terminal-595841596-line-11)">
</text><text class="terminal-595841596-r1" x="634.4" y="312.8" textLength="12.2" clip-path="url(#terminal-595841596-line-12)">
</text><text class="terminal-595841596-r6" x="85.4" y="337.2" textLength="292.8" clip-path="url(#terminal-595841596-line-13)">dimAns&#160;Calculator&#160;0.0.23</text><text class="terminal-595841596-r1" x="634.4" y="337.2" textLength="12.2" clip-path="url(#terminal-595841596-line-13)">
</text><text class="terminal-595841596-r6" x="85.4" y="361.6" textLength="414.8" clip-path="url(#terminal-595841596-line-14)">Copyright&#160;(c)&#160;2023-2024&#160;Emre&#160;Özcan</text><text class="terminal-595841596-r1" x="634.4" y="361.6" textLength="12.2" clip-path="url(#terminal-595841596-line-14)">
</text><text class="terminal-595841596-r1" x="634.4" y="386" textLength="12.2" clip-path="url(#terminal-595841596-line-15)">
</text><text class="terminal-595841596-r1" x="634.4" y="410.4" textLength="12.2" clip-path="url(#terminal-595841596-line-16)">
</text><text class="terminal-595841596-r1" x="634.4" y="434.8" textLength="12.2" clip-path="url(#terminal-595841596-line-17)">
</text><text class="terminal-595841596-r1" x="634.4" y="459.2" textLength="12.2" clip-path="url(#terminal-595841596-line-18)">
</text><text class="terminal-595841596-r1" x="634.4" y="483.6" textLength="12.2" clip-path="url(#terminal-595841596-line-19)">
</text><text class="terminal-595841596-r7" x="0" y="508" textLength="12.2" clip-path="url(#terminal-595841596-line-20)">▊</text><text class="terminal-595841596-r8" x="12.2" y="508" textLength="610" clip-path="url(#terminal-595841596-line-20)">▔▔▔▔▔▔▔▔▔▔▔▔▔▔▔▔▔▔▔▔▔▔▔▔▔▔▔▔▔▔▔▔▔▔▔▔▔▔▔▔▔▔▔▔▔▔▔▔▔▔</text><text class="terminal-595841596-r8" x="622.2" y="508" textLength="12.2" clip-path="url(#terminal-595841596-line-20)">▎</text><text class="terminal-595841596-r1" x="634.4" y="508" textLength="12.2" clip-path="url(#terminal-595841596-line-20)">
</text><text class="terminal-595841596-r7" x="0" y="532.4" textLength="12.2" clip-path="url(#terminal-595841596-line-21)">▊</text><text class="terminal-595841596-r7" x="24.4" y="532.4" textLength="12.2" clip-path="url(#terminal-595841596-line-21)">(</text><text class="terminal-595841596-r9" x="36.6" y="532.4" textLength="439.2" clip-path="url(#terminal-595841596-line-21)">1/2)&#160;*&#160;(50&#160;N&#160;/&#160;(1000&#160;kg))&#160;*&#160;(20&#160;s)^2</text><text class="terminal-595841596-r8" x="622.2" y="532.4" textLength="12.2" clip-path="url(#terminal-595841596-line-21)">▎</text><text class="terminal-595841596-r1" x="634.4" y="532.4" textLength="12.2" clip-path="url(#terminal-595841596-line-21)">
</text><text class="terminal-595841596-r7" x="0" y="556.8" textLength="12.2" clip-path="url(#terminal-595841596-line-22)">▊</text><text class="terminal-595841596-r8" x="12.2" y="556.8" textLength="610" clip-path="url(#terminal-595841596-line-22)">▁▁▁▁▁▁▁▁▁▁▁▁▁▁▁▁▁▁▁▁▁▁▁▁▁▁▁▁▁▁▁▁▁▁▁▁▁▁▁▁▁▁▁▁▁▁▁▁▁▁</text><text class="terminal-595841596-r8" x="622.2" y="556.8" textLength="12.2" clip-path="url(#terminal-595841596-line-22)">▎</text><text class="terminal-595841596-r1" x="634.4" y="556.8" textLength="12.2" clip-path="url(#terminal-595841596-line-22)">
</text><text class="terminal-595841596-r1" x="634.4" y="581.2" textLength="12.2" clip-path="url(#terminal-595841596-line-23)">
</text><text class="terminal-595841596-r11" x="0" y="605.6" textLength="48.8" clip-path="url(#terminal-595841596-line-24)">&#160;f1&#160;</text><text class="terminal-595841596-r12" x="48.8" y="605.6" textLength="219.6" clip-path="url(#terminal-595841596-line-24)">function&#160;selector&#160;</text><text class="terminal-595841596-r11" x="268.4" y="605.6" textLength="48.8" clip-path="url(#terminal-595841596-line-24)">&#160;f2&#160;</text><text class="terminal-595841596-r12" x="317.2" y="605.6" textLength="109.8" clip-path="url(#terminal-595841596-line-24)">debugger&#160;</text><text class="terminal-595841596-r11" x="427" y="605.6" textLength="48.8" clip-path="url(#terminal-595841596-line-24)">&#160;^q&#160;</text><text class="terminal-595841596-r12" x="475.8" y="605.6" textLength="61" clip-path="url(#terminal-595841596-line-24)">quit&#160;</text>
    </g>
    </g>
</svg>
