<svg version="1.1" xmlns="http://www.w3.org/2000/svg" xmlns:xlink="http://www.w3.org/1999/xlink" width="36.13787" height="60.31603" viewBox="0,0,36.13787,60.31603"><g transform="translate(-221.93106,-149.84198)"><g data-paper-data="{&quot;isPaintingLayer&quot;:true}" fill-rule="nonzero" stroke="none" stroke-linecap="butt" stroke-linejoin="miter" stroke-miterlimit="10" stroke-dasharray="" stroke-dashoffset="0" style="mix-blend-mode: normal"><g><path d="M242.6457,188.94272c-6.61247,9.72817 -8.0359,11.51509 -16.77197,8.26083c-8.42111,-3.13693 -1.31453,-10.20251 2.7536,-18.52426c2.32887,-4.76394 5.97458,-9.30604 10.79395,-14.77267c6.57725,-7.46061 12.47417,-16.38339 16.24147,-13.51439c6.34494,3.91757 -0.50065,30.53923 -13.01705,38.55049z" fill="#00ffe6" stroke-width="0"/><path d="M222.86979,210.15802c-0.93873,0 -0.93873,-0.93873 -0.93873,-0.93873v-0.50065c0.01959,-3.10731 1.22805,-6.68295 2.60239,-9.43162c0.94412,-1.88825 1.50518,-3.40004 3.84356,-3.52285c0,0 0.00652,0 0.01848,0.00055c-0.0602,-0.04002 -0.1209,-0.08962 -0.1816,-0.15033c-0.58224,-0.58223 -0.14306,-1.16447 -0.02636,-1.29874c-0.01022,-1.26736 -0.05181,-2.49164 0.25911,-3.73531c-0.01951,-2.45934 0.97199,-3.98415 1.80357,-6.21886c0.31721,-0.85244 0.65517,-1.70502 1.01319,-2.55519c-0.10613,0.04055 -0.23254,0.06469 -0.3831,0.06469c-0.93873,0 -0.93873,-0.93873 -0.93873,-0.93873c0,-0.66754 0,-1.58541 0,-2.25295c0,0 0,-0.93873 0.93873,-0.93873c0.93873,0 0.93873,0.93873 0.93873,0.93873c0,0.61522 0,1.23045 0,1.84567c2.11735,-4.74471 4.85264,-9.37319 8.08196,-13.43499c0.11645,-0.1553 0.2325,-0.3207 0.3485,-0.49328c-0.03426,0.00282 -0.06992,0.00429 -0.10706,0.00429c-0.93873,0 -0.93873,-0.93873 -0.93873,-0.93873c0,-0.83443 0,-2.16951 0,-3.00394c0,0 0,-0.93873 0.93873,-0.93873c0.93873,0 0.93873,0.93873 0.93873,0.93873c0,0.83443 0,1.66886 0,2.50328v0.12185c0.52391,-0.845 1.06392,-1.69361 1.65175,-2.2876c0.48962,-0.49475 1.25804,-0.67091 1.70691,-1.20292c0.96952,-1.14909 1.5281,-2.62332 2.49174,-3.74135c0.05659,-0.06566 0.11546,-0.12968 0.17635,-0.19225c-0.19184,-0.00468 -0.40596,-0.08066 -0.62008,-0.29478c-0.58517,-0.58517 -0.13859,-1.17035 -0.02462,-1.30074c0,-0.53867 0,-1.07733 0,-1.61599c0,0 0,-0.93873 0.93873,-0.93873c0.93873,0 0.93873,0.93873 0.93873,0.93873c0,0.66754 0,1.33508 0,2.00262l-0.20844,0.36275c0.89569,-0.63149 1.89708,-1.18224 2.55425,-1.96555c1.35736,-1.6179 2.39207,-3.46893 4.72595,-3.5915c0,0 0.93873,0 0.93873,0.93873c0,0.93873 -0.93873,0.93873 -0.93873,0.93873c-1.46306,-0.16282 -2.45386,1.96471 -3.28454,2.91702c-1.02312,1.17294 -2.74448,1.81719 -3.75491,3.00394c-0.96209,1.12996 -1.51687,2.61745 -2.51482,3.76848c-0.48447,0.55879 -1.27088,0.78129 -1.79768,1.30036c-0.65175,0.64219 -1.25677,1.69004 -1.84478,2.65298c4.47066,-0.01038 8.79733,-1.00123 13.19673,-1.00123h0.75099c0,0 0.93873,0 0.93873,0.93873c0,0.93873 -0.93873,0.93873 -0.93873,0.93873h-0.75099c-4.41411,0 -8.77396,1.00131 -13.26737,1.00131c0,0 -0.61753,0 -0.85086,-0.50085c-3.96825,4.95661 -7.0882,10.84723 -9.28315,16.65978c-0.80091,2.12094 -1.6865,3.4934 -1.70102,5.79688c-0.19315,0.7726 -0.24262,1.52966 -0.25099,2.29739c2.44396,-0.39203 4.9638,-0.08277 7.39601,-0.57898l0.93509,-0.01823c0,0 0.93873,0 0.93873,0.93873c0,0.93873 -0.93873,0.93873 -0.93873,0.93873l-0.56689,-0.01823c-2.61818,0.51456 -5.36318,0.08244 -7.95549,0.6774l-0.3263,0.56784c0,0 -0.27369,0.27369 -0.64533,0.29385c0.21698,0.12501 0.41962,0.35852 0.41962,0.79467c0,0.93873 -0.93873,0.93873 -0.93873,0.93873c-1.33046,-0.14807 -1.65706,1.47053 -2.16431,2.48502c-1.23692,2.47385 -2.42639,5.79189 -2.40418,8.59199v0.50065c0,0 0,0.93873 -0.93873,0.93873z" fill="#000000" stroke-width="0.5"/><path d="M225.27836,192.77642c0.2668,0.04647 0.78312,0.22635 0.78312,0.92254c0,0.93873 -0.93873,0.93873 -0.93873,0.93873l-1.68971,-0.93873c0.00596,-1.44134 -0.2475,-2.79291 -0.25033,-4.25557c0,0 0,-0.93873 0.93873,-0.93873c0.93873,0 0.93873,0.93873 0.93873,0.93873c-0.00243,1.14784 0.15002,2.22345 0.21819,3.33303z" fill="#000000" stroke-width="0.5"/><path d="M256.30298,157.10456c0.29685,0.89056 -0.5937,1.18741 -0.5937,1.18741l-0.56486,0.16473c-1.87894,1.12618 -3.74373,2.90125 -5.80608,3.36981c0,0 -0.9205,0.1841 -1.1046,-0.7364c-0.1841,-0.9205 0.7364,-1.1046 0.7364,-1.1046c1.67047,-0.26498 3.6523,-2.20406 5.20834,-3.13872l0.9371,-0.33594c0,0 0.89056,-0.29685 1.18741,0.5937z" fill="#000000" stroke-width="0.5"/><path d="M250.81591,179.70325c0.22767,0.9107 -0.68303,1.13837 -0.68303,1.13837l-1.00131,0.25033c-4.31795,1.07628 -9.43246,-0.20061 -13.22467,2.37365c0,0 -0.78107,0.52071 -1.30178,-0.26036c-0.52071,-0.78107 0.26036,-1.30178 0.26036,-1.30178c4.16434,-2.73427 9.1703,-1.46909 13.81074,-2.63291l1.00132,-0.25033c0,0 0.9107,-0.22768 1.13837,0.68302z" fill="#000000" stroke-width="0.5"/></g></g></g></svg>
